SplineFontDB: 3.2
FontName: Biohackers
FullName: Biohackers
FamilyName: Biohackers
Weight: Book
Copyright: Copyright (c) 2022, zmr
Version: 002.000
ItalicAngle: 0
UnderlinePosition: -409
UnderlineWidth: 204
Ascent: 3277
Descent: 819
InvalidEm: 0
sfntRevision: 0x00010000
LayerCount: 2
Layer: 0 1 "Back" 1
Layer: 1 1 "Fore" 0
XUID: [1021 410 -877779780 13252281]
StyleMap: 0x0040
FSType: 0
OS2Version: 4
OS2_WeightWidthSlopeOnly: 0
OS2_UseTypoMetrics: 1
CreationTime: 1664552904
ModificationTime: 1667128936
PfmFamily: 17
TTFWeight: 400
TTFWidth: 5
LineGap: 369
VLineGap: 0
Panose: 2 0 5 3 0 0 0 0 0 0
OS2TypoAscent: 3277
OS2TypoAOffset: 0
OS2TypoDescent: -819
OS2TypoDOffset: 0
OS2TypoLinegap: 369
OS2WinAscent: 2781
OS2WinAOffset: 0
OS2WinDescent: 455
OS2WinDOffset: 0
HheadAscent: 2781
HheadAOffset: 0
HheadDescent: -455
HheadDOffset: 0
OS2SubXSize: 2662
OS2SubYSize: 2867
OS2SubXOff: 0
OS2SubYOff: 573
OS2SupXSize: 2662
OS2SupYSize: 2867
OS2SupXOff: 0
OS2SupYOff: 1966
OS2StrikeYSize: 201
OS2StrikeYPos: 1057
OS2CapHeight: 2015
OS2XHeight: 2015
OS2Vendor: 'PfEd'
OS2CodePages: 00000001.00000000
OS2UnicodeRanges: 00000001.00000000.00000000.00000000
MarkAttachClasses: 1
DEI: 91125
ShortTable: cvt  2
  33
  633
EndShort
ShortTable: maxp 16
  1
  0
  61
  283
  3
  0
  0
  2
  0
  1
  1
  0
  64
  46
  0
  0
EndShort
LangName: 1033 "" "" "Regular" "FontForge 2.0 : Biohackers : 30-9-2022" "" "Version 001.000"
GaspTable: 1 65535 2 0
Encoding: UnicodeBmp
Compacted: 1
UnicodeInterp: none
NameList: AGL For New Fonts
DisplaySize: -128
AntiAlias: 1
FitToEm: 0
WidthSeparation: 130
WinInfo: 0 14 6
BeginPrivate: 0
EndPrivate
Grid
-4701.79785156 5324.79980469 m 0
 -4701.79785156 -2867.20019531 l 1024
-4096 2372.40332031 m 0
 8192 2372.40332031 l 1024
  Named: "height"
-471.040039062 5324.79980469 m 0
 -471.040039062 -2867.20019531 l 1024
EndSplineSet

StartChar: A
Encoding: 65 65 3
Width: 2326
GlyphClass: 1
Flags: W
LayerCount: 2
Fore
SplineSet
2135 153 m 1,0,1
 2122 57 2122 57 2019.5 15.5 c 128,-1,2
 1917 -26 1917 -26 1836 35 c 0,3,4
 1798 64 1798 64 1776 106 c 128,-1,5
 1754 148 1754 148 1737 211 c 128,-1,6
 1720 274 1720 274 1709 299 c 2,7,-1
 1666 431 l 1,8,9
 1481 431 1481 431 1111 431 c 128,-1,10
 741 431 741 431 556 432 c 1,11,12
 533 335 533 335 427.5 295 c 128,-1,13
 322 255 322 255 237 315 c 0,14,15
 167 358 167 358 154 442.5 c 128,-1,16
 141 527 141 527 188 590 c 1,17,18
 233 706 233 706 324.5 916 c 128,-1,19
 416 1126 416 1126 449 1207 c 0,20,21
 692 1779 692 1779 914 2327 c 1,22,23
 1129 2419 1129 2419 1344 2327 c 1,24,25
 1446 2026 1446 2026 1693 1413 c 128,-1,26
 1940 800 1940 800 2046 478 c 0,27,28
 2053 451 2053 451 2092.5 335 c 128,-1,29
 2132 219 2132 219 2135 153 c 1,0,1
1389 1401 m 1,30,-1
 1163 2046 l 1,31,32
 1130 2055 1130 2055 1097 2046 c 1,33,34
 1022 1855 1022 1855 848 1401 c 1,35,36
 848 1401 848 1401 1389 1401 c 1,30,-1
693 1093 m 1,37,38
 670 948 670 948 649 803 c 0,39,40
 640 781 640 781 649 775.5 c 128,-1,41
 658 770 658 770 683 772.5 c 128,-1,42
 708 775 708 775 715 774 c 0,43,44
 810 776 810 776 1132.5 774.5 c 128,-1,45
 1455 773 1455 773 1550 773 c 1,46,47
 1519 1022 1519 1022 1508 1081 c 1,48,49
 1100 1091 1100 1091 693 1093 c 1,37,38
EndSplineSet
Validated: 33
EndChar

StartChar: B
Encoding: 66 66 4
Width: 2174
GlyphClass: 1
Flags: W
LayerCount: 2
Fore
SplineSet
817 -1 m 0,0,1
 545 -4 545 -4 230 25 c 1,2,3
 228 967 228 967 234 1908 c 1,4,5
 275 1989 275 1989 383.5 2003 c 128,-1,6
 492 2017 492 2017 555 1947 c 0,7,8
 579 1914 579 1914 588 1850 c 128,-1,9
 597 1786 597 1786 595 1738 c 2,10,-1
 592 1691 l 2,11,12
 590 1536 590 1536 589 1383 c 1,13,14
 767 1365 767 1365 988.5 1381.5 c 128,-1,15
 1210 1398 1210 1398 1371 1469 c 0,16,17
 1470 1510 1470 1510 1517 1601.5 c 128,-1,18
 1564 1693 1564 1693 1536 1787 c 0,19,20
 1509 1895 1509 1895 1402.5 1968 c 128,-1,21
 1296 2041 1296 2041 1164 2059 c 0,22,23
 1063 2082 1063 2082 1043 2182 c 128,-1,24
 1023 2282 1023 2282 1109 2334 c 0,25,26
 1145 2356 1145 2356 1192.5 2360.5 c 128,-1,27
 1240 2365 1240 2365 1273.5 2359 c 128,-1,28
 1307 2353 1307 2353 1365.5 2338 c 128,-1,29
 1424 2323 1424 2323 1447 2318 c 0,30,31
 1626 2267 1626 2267 1759 2149.5 c 128,-1,32
 1892 2032 1892 2032 1924 1877 c 0,33,34
 1964 1695 1964 1695 1889 1518 c 128,-1,35
 1814 1341 1814 1341 1636 1258 c 0,36,37
 1631 1254 1631 1254 1509 1210 c 0,38,39
 1454 1190 1454 1190 1542 1176 c 0,40,41
 1730 1120 1730 1120 1846.5 969 c 128,-1,42
 1963 818 1963 818 1949 645 c 0,43,44
 1945 473 1945 473 1833.5 324.5 c 128,-1,45
 1722 176 1722 176 1544 106 c 0,46,47
 1447 63 1447 63 1318.5 39 c 128,-1,48
 1190 15 1190 15 1104.5 10 c 128,-1,49
 1019 5 1019 5 865 0 c 0,50,51
 833 0 833 0 817 -1 c 0,0,1
719 1017 m 0,52,53
 660 1013 660 1013 599 1008 c 1,54,55
 596 664 596 664 596 320 c 1,56,57
 790 293 790 293 1001 305 c 0,58,59
 1250 323 1250 323 1385 392 c 0,60,61
 1536 464 1536 464 1553 600 c 0,62,63
 1584 756 1584 756 1469 853 c 0,64,65
 1375 946 1375 946 1170 988 c 0,66,67
 1041 1017 1041 1017 719 1017 c 0,52,53
EndSplineSet
Validated: 33
EndChar

StartChar: C
Encoding: 67 67 5
Width: 2314
GlyphClass: 1
Flags: W
LayerCount: 2
Fore
SplineSet
1460 1989 m 0,0,1
 1179 2003 1179 2003 957 1890 c 0,2,3
 683 1727 683 1727 612 1438 c 0,4,5
 531 1152 531 1152 603 845 c 0,6,7
 670 620 670 620 890 472 c 128,-1,8
 1110 324 1110 324 1371 316 c 0,9,10
 1473 300 1473 300 1508.5 203 c 128,-1,11
 1544 106 1544 106 1471 39 c 0,12,13
 1418 -11 1418 -11 1322.5 -14.5 c 128,-1,14
 1227 -18 1227 -18 1157 0 c 0,15,16
 889 35 889 35 663 176.5 c 128,-1,17
 437 318 437 318 328 534 c 0,18,19
 113 932 113 932 229 1497 c 0,20,21
 270 1727 270 1727 422 1920 c 128,-1,22
 574 2113 574 2113 801 2210 c 0,23,24
 1092 2338 1092 2338 1428.5 2317 c 128,-1,25
 1765 2296 1765 2296 2034 2133 c 0,26,27
 2117 2092 2117 2092 2113.5 1995.5 c 128,-1,28
 2110 1899 2110 1899 2020 1870 c 0,29,30
 1949 1843 1949 1843 1829 1894.5 c 128,-1,31
 1709 1946 1709 1946 1682 1950 c 0,32,33
 1534 1987 1534 1987 1460 1989 c 0,0,1
EndSplineSet
Validated: 33
EndChar

StartChar: D
Encoding: 68 68 6
Width: 2105
GlyphClass: 1
Flags: W
LayerCount: 2
Fore
SplineSet
643 0 m 0,0,1
 445 -2 445 -2 256 48 c 1,2,3
 249 787 249 787 246 2192 c 1,4,5
 522 2270 522 2270 750 2250 c 0,6,7
 1266 2229 1266 2229 1536 1959 c 0,8,9
 1763 1731 1763 1731 1845 1408.5 c 128,-1,10
 1927 1086 1927 1086 1832 778 c 0,11,12
 1757 531 1757 531 1587.5 338.5 c 128,-1,13
 1418 146 1418 146 1186 73 c 0,14,15
 950 1 950 1 643 0 c 0,0,1
731 1923 m 0,16,17
 645 1914 645 1914 562 1885 c 1,18,19
 561 1779 561 1779 563 1338 c 1,20,21
 563 1338 563 1338 1048 1341 c 2,22,23
 1127 1347 1127 1347 1179 1276.5 c 128,-1,24
 1231 1206 1231 1206 1201 1133 c 0,25,26
 1185 1073 1185 1073 1126.5 1044.5 c 128,-1,27
 1068 1016 1068 1016 1003 1024 c 2,28,29
 1003 1024 1003 1024 563 1021 c 1,30,-1
 563 417 l 2,31,32
 574 381 574 381 594 362 c 128,-1,33
 614 343 614 343 632.5 339 c 128,-1,34
 651 335 651 335 687 334 c 0,35,36
 1051 314 1051 314 1244 455 c 0,37,38
 1404 571 1404 571 1485 763 c 128,-1,39
 1566 955 1566 955 1557 1162 c 0,40,41
 1551 1352 1551 1352 1464 1524 c 128,-1,42
 1377 1696 1377 1696 1226 1801 c 0,43,44
 1060 1916 1060 1916 731 1923 c 0,16,17
EndSplineSet
Validated: 33
EndChar

StartChar: E
Encoding: 69 69 7
Width: 2113
GlyphClass: 1
Flags: W
LayerCount: 2
Fore
SplineSet
410 2357 m 1,0,1
 1309 2367 1309 2367 1713 2354 c 0,2,3
 1809 2351 1809 2351 1856 2254 c 0,4,5
 1895 2179 1895 2179 1831 2098 c 0,6,7
 1801 2060 1801 2060 1733 2049 c 0,8,9
 1663 2036 1663 2036 1608 2041 c 2,10,-1
 1553 2045 l 1,11,-1
 650 2044 l 1,12,-1
 646 1778 l 1,13,-1
 1252 1780 l 2,14,15
 1343 1780 1343 1780 1387 1682 c 0,16,17
 1420 1601 1420 1601 1368 1533 c 0,18,19
 1346 1504 1346 1504 1302 1486 c 0,20,21
 1260 1471 1260 1471 1234 1467 c 0,22,23
 1130 1446 1130 1446 1140 1464 c 0,24,25
 1141 1466 1141 1466 1062 1465 c 2,26,-1
 646 1465 l 1,27,28
 645 1438 645 1438 646 1385 c 0,29,30
 645 1331 645 1331 646 1306 c 1,31,-1
 1702 1306 l 2,32,33
 1793 1307 1793 1307 1846 1222 c 0,34,35
 1891 1155 1891 1155 1849 1075 c 0,36,37
 1826 1032 1826 1032 1775 1013 c 0,38,39
 1723 992 1723 992 1685 989 c 0,40,41
 1645 987 1645 987 1578 985 c 0,42,43
 1113 983 1113 983 646 984 c 1,44,-1
 646 314 l 1,45,46
 1203 315 1203 315 1764 313 c 1,47,48
 1842 291 1842 291 1874 217 c 0,49,50
 1899 160 1899 160 1857 82 c 0,51,52
 1846 62 1846 62 1831 46 c 0,53,54
 1818 33 1818 33 1792 22 c 0,55,56
 1768 12 1768 12 1753 7 c 0,57,58
 1739 0 1739 0 1704.5 0 c 128,-1,59
 1670 0 1670 0 1659.5 -2 c 128,-1,60
 1649 -4 1649 -4 1608 -2 c 0,61,62
 1567 0 1567 0 1563 -0 c 0,63,64
 981 0 981 0 404 0 c 0,65,66
 347 0 347 0 296 65 c 0,67,68
 253 115 253 115 250 181 c 0,69,70
 245 496 245 496 246 1147 c 0,71,72
 253 2166 253 2166 251 2171 c 0,73,74
 249 2248 249 2248 284 2292 c 0,75,76
 330 2347 330 2347 410 2357 c 1,0,1
EndSplineSet
Validated: 33
EndChar

StartChar: F
Encoding: 70 70 8
Width: 2076
GlyphClass: 1
Flags: W
LayerCount: 2
Fore
SplineSet
643 0 m 1,0,-1
 247 0 l 1,1,2
 248 377 248 377 246.5 1083 c 128,-1,3
 245 1789 245 1789 246 2100 c 0,4,5
 252 2167 252 2167 321 2213.5 c 128,-1,6
 390 2260 390 2260 471 2252 c 2,7,-1
 1740 2252 l 2,8,9
 1827 2243 1827 2243 1867 2165.5 c 128,-1,10
 1907 2088 1907 2088 1857 2024 c 0,11,12
 1796 1935 1796 1935 1563 1943 c 0,13,14
 1104 1942 1104 1942 643 1943 c 1,15,-1
 643 1804 l 1,16,17
 664 1804 664 1804 1012 1803 c 0,18,19
 1351 1806 1351 1806 1376 1758 c 1,20,21
 1457 1697 1457 1697 1423.5 1600.5 c 128,-1,22
 1390 1504 1390 1504 1279 1491 c 2,23,-1
 643 1488 l 1,24,-1
 643 1308 l 1,25,26
 1023 1309 1023 1309 1406 1307 c 0,27,28
 1495 1311 1495 1311 1551 1270 c 128,-1,29
 1607 1229 1607 1229 1612 1155 c 0,30,31
 1625 1083 1625 1083 1567.5 1030.5 c 128,-1,32
 1510 978 1510 978 1425 988 c 0,33,34
 1034 987 1034 987 643 987 c 1,35,-1
 643 0 l 1,0,-1
EndSplineSet
Validated: 33
EndChar

StartChar: G
Encoding: 71 71 9
Width: 2478
GlyphClass: 1
Flags: W
LayerCount: 2
Fore
SplineSet
1611 2354 m 0,0,1
 1835 2329 1835 2329 2014 2251 c 0,2,3
 2149 2188 2149 2188 2181 2161 c 0,4,5
 2232 2125 2232 2125 2223 2045 c 1,6,7
 2239 1960 2239 1960 2161 1919 c 0,8,9
 2079 1866 2079 1866 1958 1922 c 0,10,11
 1770 1993 1770 1993 1627 2011 c 0,12,13
 1611 2013 1611 2013 1406 2017 c 0,14,15
 1384 2014 1384 2014 1339 2011 c 128,-1,16
 1294 2008 1294 2008 1271 2005 c 0,17,18
 1213 1999 1213 1999 1160 2024.5 c 128,-1,19
 1107 2050 1107 2050 1080 2098 c 0,20,21
 1049 2148 1049 2148 1061 2209.5 c 128,-1,22
 1073 2271 1073 2271 1122 2305 c 0,23,24
 1201 2348 1201 2348 1283 2355 c 0,25,26
 1322 2364 1322 2364 1492 2363 c 0,27,28
 1552 2360 1552 2360 1611 2354 c 0,0,1
608 1280 m 0,29,30
 582 890 582 890 774 673 c 0,31,32
 930 492 930 492 1203 420.5 c 128,-1,33
 1476 349 1476 349 1767 356 c 1,34,35
 1809 382 1809 382 1824.5 423.5 c 128,-1,36
 1840 465 1840 465 1842 535.5 c 128,-1,37
 1844 606 1844 606 1847 626 c 0,38,39
 1847 786 1847 786 1846 946 c 1,40,41
 1795 947 1795 947 1658.5 948 c 128,-1,42
 1522 949 1522 949 1449 953 c 0,43,44
 1364 961 1364 961 1321.5 1037 c 128,-1,45
 1279 1113 1279 1113 1325 1182 c 0,46,47
 1374 1264 1374 1264 1560 1258 c 0,48,49
 1850 1259 1850 1259 2140 1257 c 1,50,51
 2189 1237 2189 1237 2200.5 1193 c 128,-1,52
 2212 1149 2212 1149 2205.5 1084.5 c 128,-1,53
 2199 1020 2199 1020 2204 993 c 0,54,55
 2204 962 2204 962 2205 597 c 128,-1,56
 2206 232 2206 232 2202 201 c 0,57,58
 2185 167 2185 167 2146 144 c 128,-1,59
 2107 121 2107 121 2043 100 c 128,-1,60
 1979 79 1979 79 1958 70 c 0,61,62
 1474 -75 1474 -75 976 82 c 0,63,64
 772 149 772 149 606.5 276 c 128,-1,65
 441 403 441 403 345 576 c 0,66,67
 103 1009 103 1009 235 1597 c 1,68,69
 313 1726 313 1726 446 1709 c 0,70,71
 535 1705 535 1705 593.5 1632 c 128,-1,72
 652 1559 652 1559 629 1477 c 0,73,74
 628 1446 628 1446 617.5 1380.5 c 128,-1,75
 607 1315 607 1315 608 1280 c 0,29,30
EndSplineSet
Validated: 33
EndChar

StartChar: H
Encoding: 72 72 10
Width: 2154
GlyphClass: 1
Flags: W
HStem: 517 256<572 1299> 967 265<572 1556>
VStem: 248 323<10 517 773 967 1233 2185> 1561 323<68 965 1231 2228>
LayerCount: 2
Fore
SplineSet
431 -7 m 0,0,1
 366 -15 366 -15 312 24.5 c 128,-1,2
 258 64 258 64 254 123 c 0,3,4
 244 140 244 140 246 249.5 c 128,-1,5
 248 359 248 359 247 384 c 0,6,7
 247 1236 247 1236 248 2087 c 1,8,9
 268 2156 268 2156 343 2187.5 c 128,-1,10
 418 2219 418 2219 488 2182 c 0,11,12
 509 2172 509 2172 524 2159 c 128,-1,13
 539 2146 539 2146 548 2127.5 c 128,-1,14
 557 2109 557 2109 562.5 2095.5 c 128,-1,15
 568 2082 568 2082 570 2056.5 c 128,-1,16
 572 2031 572 2031 572.5 2020 c 128,-1,17
 573 2009 573 2009 572.5 1979.5 c 128,-1,18
 572 1950 572 1950 571 1944 c 0,19,20
 572 1589 572 1589 572 1233 c 1,21,22
 1066 1230 1066 1230 1560 1231 c 1,23,24
 1559 1675 1559 1675 1561 2118 c 0,25,26
 1569 2192 1569 2192 1650 2229 c 128,-1,27
 1731 2266 1731 2266 1802 2226 c 0,28,29
 1840 2206 1840 2206 1860 2169.5 c 128,-1,30
 1880 2133 1880 2133 1883 2107 c 128,-1,31
 1886 2081 1886 2081 1885 2025 c 128,-1,32
 1884 1969 1884 1969 1885 1954 c 0,33,34
 1887 1053 1887 1053 1884 152 c 0,35,36
 1874 94 1874 94 1827.5 49 c 128,-1,37
 1781 4 1781 4 1716 11 c 0,38,39
 1641 9 1641 9 1602.5 66 c 128,-1,40
 1564 123 1564 123 1561 198 c 0,41,42
 1558 582 1558 582 1556 965 c 1,43,44
 1064 967 1064 967 572 967 c 1,45,-1
 572 773 l 1,46,47
 893 770 893 770 1215 772 c 0,48,49
 1274 768 1274 768 1300 709 c 128,-1,50
 1326 650 1326 650 1302.5 588.5 c 128,-1,51
 1279 527 1279 527 1215 517 c 2,52,-1
 572 517 l 1,53,54
 570 440 570 440 572 377.5 c 128,-1,55
 574 315 574 315 572 237.5 c 128,-1,56
 570 160 570 160 563 98 c 0,57,58
 542 11 542 11 431 -7 c 0,0,1
EndSplineSet
Validated: 33
EndChar

StartChar: I
Encoding: 73 73 11
Width: 991
GlyphClass: 1
Flags: W
VStem: 244 476<39 2191>
LayerCount: 2
Fore
SplineSet
548 0 m 0,0,1
 534 0 534 0 501 0 c 128,-1,2
 468 -0 468 -0 450 0.5 c 128,-1,3
 432 1 432 1 406.5 6.5 c 128,-1,4
 381 12 381 12 362 23 c 0,5,6
 235 80 235 80 246 230 c 0,7,8
 246 346 246 346 246.5 1141.5 c 128,-1,9
 247 1937 247 1937 244 2053 c 0,10,11
 230 2131 230 2131 304.5 2194.5 c 128,-1,12
 379 2258 379 2258 485 2253 c 0,13,14
 588 2256 588 2256 661 2193.5 c 128,-1,15
 734 2131 734 2131 719 2055 c 0,16,17
 723 2007 723 2007 719.5 1901 c 128,-1,18
 716 1795 716 1795 718 1747 c 0,19,20
 727 385 727 385 727 150 c 0,21,22
 717 96 717 96 668 55 c 128,-1,23
 619 14 619 14 548 0 c 0,0,1
EndSplineSet
Validated: 33
EndChar

StartChar: J
Encoding: 74 74 12
Width: 1961
GlyphClass: 1
Flags: W
LayerCount: 2
Fore
SplineSet
1663 2105 m 1,0,-1
 1279 2105 l 1,1,2
 1263 1765 1263 1765 1265 1273.5 c 128,-1,3
 1267 782 1267 782 1267 753.5 c 128,-1,4
 1267 725 1267 725 1265 639 c 0,5,6
 1263 549 1263 549 1260 511 c 0,7,8
 1254 471 1254 471 1243 402 c 0,9,10
 1226 320 1226 320 1201 280 c 0,11,12
 1185 258 1185 258 1124 179 c 0,13,14
 1046 86 1046 86 957 41 c 0,15,16
 866 -4 866 -4 747 0 c 0,17,18
 575 4 575 4 519 25 c 0,19,20
 349 77 349 77 255 232 c 0,21,22
 149 398 149 398 161 559 c 0,23,24
 165 614 165 614 202 659 c 0,25,26
 235 701 235 701 292 707 c 0,27,28
 358 717 358 717 412 662 c 0,29,30
 456 614 456 614 454 543 c 0,31,32
 448 459 448 459 506 377 c 0,33,34
 554 307 554 307 646 281 c 0,35,36
 746 254 746 254 847 316 c 0,37,38
 947 377 947 377 965 474 c 1,39,-1
 976 1196 l 1,40,-1
 538 1196 l 1,41,42
 464 1250 464 1250 464 1331 c 0,43,44
 464 1409 464 1409 538 1466 c 1,45,-1
 976 1466 l 1,46,-1
 968 2105 l 1,47,-1
 575 2105 l 2,48,49
 501 2105 501 2105 459 2168 c 0,50,51
 411 2233 411 2233 451 2292 c 0,52,53
 472 2322 472 2322 482 2328 c 0,54,55
 510 2351 510 2351 517 2350 c 0,56,57
 595 2371 595 2371 562 2361 c 0,58,59
 415 2322 415 2322 477 2340 c 0,60,61
 644 2388 644 2388 656 2365 c 0,62,63
 656 2364 656 2364 700 2365 c 2,64,-1
 1705 2365 l 1,65,66
 1770 2343 1770 2343 1797 2273 c 0,67,68
 1812 2224 1812 2224 1770 2149 c 0,69,70
 1759 2130 1759 2130 1733 2122 c 0,71,72
 1694 2109 1694 2109 1685 2108 c 2,73,-1
 1663 2105 l 1,0,-1
EndSplineSet
Validated: 37
EndChar

StartChar: K
Encoding: 75 75 13
Width: 2027
GlyphClass: 1
Flags: W
LayerCount: 2
Fore
SplineSet
490 0 m 0,0,1
 422 -25 422 -25 354 0 c 0,2,3
 299 21 299 21 272 69 c 128,-1,4
 245 117 245 117 246 168 c 128,-1,5
 247 219 247 219 248 271 c 0,6,7
 246 1503 246 1503 247 2085 c 1,8,9
 264 2163 264 2163 350 2200.5 c 128,-1,10
 436 2238 436 2238 515 2198 c 0,11,12
 544 2184 544 2184 563 2161 c 128,-1,13
 582 2138 582 2138 589 2112.5 c 128,-1,14
 596 2087 596 2087 599.5 2057.5 c 128,-1,15
 603 2028 603 2028 601.5 2000 c 128,-1,16
 600 1972 600 1972 601 1945 c 2,17,-1
 603 1335 l 1,18,-1
 1370 2214 l 2,19,20
 1427 2288 1427 2288 1537.5 2236 c 128,-1,21
 1648 2184 1648 2184 1639 2077 c 1,22,-1
 1399 1753 l 1,23,-1
 1151 1457 l 1,24,25
 1257 1264 1257 1264 1470 877 c 128,-1,26
 1683 490 1683 490 1789 297 c 0,27,28
 1903 100 1903 100 1794 30 c 0,29,30
 1720 -14 1720 -14 1642 14 c 128,-1,31
 1564 42 1564 42 1519 113 c 0,32,33
 1214 647 1214 647 910 1182 c 1,34,35
 757 1049 757 1049 603 916 c 1,36,37
 603 784 603 784 603 519 c 128,-1,38
 603 254 603 254 602 122 c 0,39,40
 593 35 593 35 490 0 c 0,0,1
EndSplineSet
Validated: 33
EndChar

StartChar: L
Encoding: 76 76 14
Width: 1773
GlyphClass: 1
Flags: W
HStem: 0 412<460.043 1676.04>
VStem: 49.0426 411<412 2215>
LayerCount: 2
Fore
SplineSet
1559.04296875 0 m 1,0,-1
 140.04296875 0 l 1,1,2
 92.04296875 18 92.04296875 18 69.54296875 121 c 128,-1,3
 47.04296875 224 47.04296875 224 48.04296875 318 c 2,4,-1
 49.04296875 412 l 2,5,6
 49.04296875 520 49.04296875 520 48.54296875 1253.5 c 128,-1,7
 48.04296875 1987 48.04296875 1987 49.04296875 2095 c 0,8,9
 59.04296875 2175 59.04296875 2175 153.54296875 2224.5 c 128,-1,10
 248.04296875 2274 248.04296875 2274 334.04296875 2241 c 0,11,12
 399.04296875 2219 399.04296875 2219 437.54296875 2166.5 c 128,-1,13
 476.04296875 2114 476.04296875 2114 461.04296875 2055 c 0,14,15
 463.04296875 1247 463.04296875 1247 460.04296875 412 c 1,16,17
 1002.04296875 412 1002.04296875 412 1545.04296875 409 c 0,18,19
 1630.04296875 401 1630.04296875 401 1691.54296875 301 c 128,-1,20
 1753.04296875 201 1753.04296875 201 1717.04296875 128 c 0,21,22
 1701.04296875 87 1701.04296875 87 1652.04296875 46 c 128,-1,23
 1603.04296875 5 1603.04296875 5 1559.04296875 0 c 1,0,-1
EndSplineSet
Validated: 524321
EndChar

StartChar: M
Encoding: 77 77 15
Width: 2166
GlyphClass: 1
Flags: W
LayerCount: 2
Fore
SplineSet
1892 0 m 1,0,-1
 1585 0 l 1,1,2
 1597 528 1597 528 1600 756 c 1,3,4
 1090 754 1090 754 578 754 c 1,5,6
 570 377 570 377 561 0 c 1,7,-1
 254 0 l 1,8,-1
 256 2323 l 1,9,10
 319 2371 319 2371 401 2372 c 0,11,12
 483 2371 483 2371 547 2323 c 1,13,-1
 1057 1495 l 1,14,-1
 1604 2323 l 1,15,16
 1663 2371 1663 2371 1747 2372 c 0,17,18
 1835 2371 1835 2371 1894 2323 c 1,19,-1
 1892 0 l 1,0,-1
569 1765 m 1,20,-1
 580 1020 l 1,21,-1
 935 1020 l 1,22,-1
 569 1765 l 1,20,-1
1583 1765 m 1,23,-1
 1238 1020 l 1,24,-1
 1594 1020 l 1,25,-1
 1583 1765 l 1,23,-1
EndSplineSet
Validated: 1
EndChar

StartChar: N
Encoding: 78 78 16
Width: 2134
GlyphClass: 1
Flags: W
LayerCount: 2
Fore
SplineSet
1791 31 m 0,0,1
 1678 -28 1678 -28 1552 59 c 0,2,3
 1492 103 1492 103 1428 161 c 0,4,5
 1341 233 1341 233 1338 259 c 0,6,7
 1337 270 1337 270 1254 405 c 0,8,9
 1201 491 1201 491 1178 528 c 0,10,11
 1074 697 1074 697 865 1031 c 0,12,13
 657 1364 657 1364 556 1527 c 1,14,15
 554 1290 554 1290 555 816 c 0,16,17
 554 119 554 119 554 104 c 0,18,19
 555 52 555 52 484 18 c 0,20,21
 419 -13 419 -13 349.5 -0.5 c 128,-1,22
 280 12 280 12 260 69 c 0,23,24
 243 114 243 114 237 170 c 0,25,26
 230 221 230 221 235 294 c 0,27,28
 239 365 239 365 236 397 c 0,29,30
 235 533 235 533 236 1145 c 0,31,32
 235 1864 235 1864 237 1893 c 0,33,34
 243 1979 243 1979 343 2026 c 0,35,36
 444 2072 444 2072 535 2028 c 0,37,38
 599 1999 599 1999 643 1950 c 0,39,40
 686 1905 686 1905 736 1816 c 0,41,42
 788 1728 788 1728 800 1710 c 0,43,44
 816 1684 816 1684 1558 468 c 1,45,46
 1558 1126 1558 1126 1559 1787 c 1,47,48
 1541 1786 1541 1786 1269 1784 c 0,49,50
 1009 1781 1009 1781 980 1797 c 0,51,52
 914 1831 914 1831 903 1880 c 0,53,54
 886 1941 886 1941 924 1992 c 0,55,56
 960 2044 960 2044 1032 2044 c 2,57,-1
 1750 2044 l 2,58,59
 1775 2044 1775 2044 1807 2019 c 0,60,61
 1833 1999 1833 1999 1843 1983 c 0,62,63
 1853 1966 1853 1966 1862 1932 c 0,64,65
 1870 1900 1870 1900 1870 1882 c 0,66,67
 1869 1864 1869 1864 1872 1825 c 0,68,69
 1874 1786 1874 1786 1872 1777 c 0,70,71
 1873 164 1873 164 1871 120 c 0,72,73
 1869 70 1869 70 1791 31 c 0,0,1
EndSplineSet
Validated: 33
EndChar

StartChar: O
Encoding: 79 79 17
Width: 2453
GlyphClass: 1
Flags: W
LayerCount: 2
Fore
SplineSet
1380 2312 m 0,0,1
 1651 2260 1651 2260 1854.5 2067.5 c 128,-1,2
 2058 1875 2058 1875 2149 1621 c 0,3,4
 2279 1293 2279 1293 2211 921.5 c 128,-1,5
 2143 550 2143 550 1889 286 c 0,6,7
 1636 33 1636 33 1321 0 c 0,8,9
 1234 -11 1234 -11 1169.5 49.5 c 128,-1,10
 1105 110 1105 110 1128 188 c 0,11,12
 1140 246 1140 246 1187 276 c 128,-1,13
 1234 306 1234 306 1316.5 326 c 128,-1,14
 1399 346 1399 346 1426 359 c 0,15,16
 1499 391 1499 391 1568 440.5 c 128,-1,17
 1637 490 1637 490 1647 531 c 1,18,19
 812 532 812 532 742 531 c 1,20,21
 731 443 731 443 638 400 c 128,-1,22
 545 357 545 357 460 401 c 0,23,24
 424 422 424 422 393.5 459.5 c 128,-1,25
 363 497 363 497 349.5 521.5 c 128,-1,26
 336 546 336 546 310 603.5 c 128,-1,27
 284 661 284 661 278 675 c 0,28,29
 150 985 150 985 196.5 1337 c 128,-1,30
 243 1689 243 1689 461 1957 c 0,31,32
 608 2148 608 2148 842.5 2251.5 c 128,-1,33
 1077 2355 1077 2355 1322 2321 c 0,34,35
 1351 2317 1351 2317 1380 2312 c 0,0,1
1251 2005 m 0,36,37
 1228 2005 1228 2005 1204 2005 c 0,38,39
 1052 2008 1052 2008 900 1914 c 0,40,41
 658 1753 658 1753 575 1472 c 1,42,43
 1161 1472 1161 1472 1745 1474 c 0,44,45
 1761 1479 1761 1479 1786.5 1474 c 128,-1,46
 1812 1469 1812 1469 1829.5 1473.5 c 128,-1,47
 1847 1478 1847 1478 1838 1498 c 0,48,49
 1750 1748 1750 1748 1562 1884 c 0,50,51
 1425 1991 1425 1991 1251 2005 c 0,36,37
1857 883 m 0,52,53
 1902 1041 1902 1041 1893 1204 c 1,54,55
 1211 1203 1211 1203 529 1204 c 1,56,57
 521 1058 521 1058 555 917 c 0,58,59
 559 906 559 906 565 880.5 c 128,-1,60
 571 855 571 855 577.5 837 c 128,-1,61
 584 819 584 819 595 805 c 0,62,63
 654 805 654 805 764 804.5 c 128,-1,64
 874 804 874 804 922 804 c 0,65,66
 993 804 993 804 1349.5 802 c 128,-1,67
 1706 800 1706 800 1777 802 c 0,68,69
 1792 803 1792 803 1801 798.5 c 128,-1,70
 1810 794 1810 794 1819 803 c 128,-1,71
 1828 812 1828 812 1832 813 c 128,-1,72
 1836 814 1836 814 1841 827.5 c 128,-1,73
 1846 841 1846 841 1847.5 845 c 128,-1,74
 1849 849 1849 849 1852.5 864 c 128,-1,75
 1856 879 1856 879 1857 883 c 0,52,53
EndSplineSet
Validated: 33
EndChar

StartChar: P
Encoding: 80 80 18
Width: 2097
GlyphClass: 1
Flags: W
LayerCount: 2
Fore
SplineSet
784 2255 m 0,0,1
 964 2250 964 2250 1059.5 2243.5 c 128,-1,2
 1155 2237 1155 2237 1301 2203 c 128,-1,3
 1447 2169 1447 2169 1551 2106 c 0,4,5
 1709 2018 1709 2018 1800.5 1864.5 c 128,-1,6
 1892 1711 1892 1711 1880 1548 c 0,7,8
 1869 1401 1869 1401 1779.5 1273.5 c 128,-1,9
 1690 1146 1690 1146 1546 1080 c 0,10,11
 1414 1016 1414 1016 1241.5 987.5 c 128,-1,12
 1069 959 1069 959 915.5 961.5 c 128,-1,13
 762 964 762 964 592 964 c 1,14,-1
 592 145 l 2,15,16
 584 69 584 69 503 25 c 128,-1,17
 422 -19 422 -19 345 16 c 0,18,19
 235 55 235 55 248 227 c 0,20,21
 245 394 245 394 247 1163 c 128,-1,22
 249 1932 249 1932 249 2100 c 0,23,24
 262 2167 262 2167 325 2206.5 c 128,-1,25
 388 2246 388 2246 473 2251 c 0,26,27
 522 2252 522 2252 625 2253 c 128,-1,28
 728 2254 728 2254 784 2255 c 0,0,1
805 1983 m 0,29,30
 706 1976 706 1976 606 1964 c 1,31,32
 606 1964 606 1964 606 1774 c 1,33,34
 749 1774 749 1774 891 1775 c 0,35,36
 909 1774 909 1774 954 1776 c 128,-1,37
 999 1778 999 1778 1031 1774 c 128,-1,38
 1063 1770 1063 1770 1090 1756 c 0,39,40
 1146 1729 1146 1729 1170 1673 c 128,-1,41
 1194 1617 1194 1617 1171 1564 c 0,42,43
 1155 1519 1155 1519 1110 1489.5 c 128,-1,44
 1065 1460 1065 1460 1011 1458 c 0,45,46
 936 1458 936 1458 797.5 1459 c 128,-1,47
 659 1460 659 1460 604 1460 c 1,48,49
 601 1344 601 1344 601 1228 c 1,50,51
 677 1219 677 1219 801 1219 c 0,52,53
 1071 1217 1071 1217 1253 1268 c 0,54,55
 1466 1325 1466 1325 1533 1458 c 0,56,57
 1594 1600 1594 1600 1526 1730 c 0,58,59
 1448 1882 1448 1882 1233 1944 c 0,60,61
 1044 1993 1044 1993 805 1983 c 0,29,30
EndSplineSet
Validated: 33
EndChar

StartChar: Q
Encoding: 81 81 19
Width: 2457
GlyphClass: 1
Flags: W
LayerCount: 2
Fore
SplineSet
1204 2373 m 0,0,1
 1489 2374 1489 2374 1726.5 2212.5 c 128,-1,2
 1964 2051 1964 2051 2085 1812 c 0,3,4
 2278 1467 2278 1467 2223.5 1055.5 c 128,-1,5
 2169 644 2169 644 1875 354 c 0,6,7
 1739 226 1739 226 1551 148 c 1,8,9
 1562 96 1562 96 1592.5 46.5 c 128,-1,10
 1623 -3 1623 -3 1676.5 -67 c 128,-1,11
 1730 -131 1730 -131 1748 -156 c 0,12,13
 1792 -239 1792 -239 1714.5 -314 c 128,-1,14
 1637 -389 1637 -389 1536 -360 c 0,15,16
 1474 -331 1474 -331 1429 -288.5 c 128,-1,17
 1384 -246 1384 -246 1316.5 -152 c 128,-1,18
 1249 -58 1249 -58 1244 -50 c 0,19,20
 1208 19 1208 19 1168.5 49.5 c 128,-1,21
 1129 80 1129 80 1026 118 c 1,22,23
 760 166 760 166 562.5 345 c 128,-1,24
 365 524 365 524 271 763 c 0,25,26
 133 1120 133 1120 214 1496 c 1,27,28
 267 1559 267 1559 361.5 1562.5 c 128,-1,29
 456 1566 456 1566 506 1500 c 0,30,31
 532 1460 532 1460 532 1409.5 c 128,-1,32
 532 1359 532 1359 522.5 1301 c 128,-1,33
 513 1243 513 1243 518 1206 c 0,34,35
 523 982 523 982 618.5 786.5 c 128,-1,36
 714 591 714 591 910 483 c 0,37,38
 1065 408 1065 408 1066 454 c 0,39,40
 1066 469 1066 469 1052 497 c 0,41,42
 986 754 986 754 1206 792 c 1,43,44
 1293 781 1293 781 1334 738.5 c 128,-1,45
 1375 696 1375 696 1408 601 c 0,46,47
 1408 554 1408 554 1418 518 c 128,-1,48
 1428 482 1428 482 1456.5 462 c 128,-1,49
 1485 442 1485 442 1535 497 c 1,50,51
 1732 628 1732 628 1815 844 c 128,-1,52
 1898 1060 1898 1060 1882 1300 c 0,53,54
 1867 1519 1867 1519 1762.5 1706.5 c 128,-1,55
 1658 1894 1658 1894 1459 1989 c 0,56,57
 1348 2040 1348 2040 1222 2044 c 128,-1,58
 1096 2048 1096 2048 984 1999 c 0,59,60
 877 1964 877 1964 790.5 2043.5 c 128,-1,61
 704 2123 704 2123 753 2212 c 0,62,63
 762 2228 762 2228 775 2243 c 128,-1,64
 788 2258 788 2258 800.5 2269 c 128,-1,65
 813 2280 813 2280 833.5 2291 c 128,-1,66
 854 2302 854 2302 867 2308.5 c 128,-1,67
 880 2315 880 2315 906.5 2323 c 128,-1,68
 933 2331 933 2331 944.5 2334.5 c 128,-1,69
 956 2338 956 2338 986.5 2344.5 c 128,-1,70
 1017 2351 1017 2351 1026 2352.5 c 128,-1,71
 1035 2354 1035 2354 1068 2360 c 128,-1,72
 1101 2366 1101 2366 1107 2367 c 0,73,74
 1155 2372 1155 2372 1204 2373 c 0,0,1
EndSplineSet
Validated: 33
EndChar

StartChar: R
Encoding: 82 82 20
Width: 2019
GlyphClass: 1
InSpiro: 1
Flags: W
LayerCount: 2
Fore
SplineSet
1839.10351562 53.759765625 m 1,0,1
 1777.6640625 0.51171875 1777.6640625 0.51171875 1665.02441406 -1.5361328125 c 128,-1,2
 1552.38378906 -3.583984375 1552.38378906 -3.583984375 1470.46386719 53.759765625 c 1,3,4
 1376.93554688 201.032226562 1376.93554688 201.032226562 1195.47558594 457.16796875 c 128,-1,5
 1014.015625 713.303710938 1014.015625 713.303710938 920.463867188 860.616210938 c 1,6,-1
 582.223632812 860.616210938 l 1,7,8
 581.248046875 725.975585938 581.248046875 725.975585938 575.759765625 466.6484375 c 128,-1,9
 570.267578125 207.3203125 570.267578125 207.3203125 569.780273438 53.759765625 c 1,10,11
 468.587890625 -3.328125 468.587890625 -3.328125 395.3203125 0 c 128,-1,12
 322.051757812 3.328125 322.051757812 3.328125 221.18359375 53.759765625 c 1,13,-1
 221.18359375 1487.36035156 l 2,14,15
 230.291992188 1566.37207031 230.291992188 1566.37207031 330.555664062 1597.984375 c 128,-1,16
 430.8203125 1629.59960938 430.8203125 1629.59960938 507.236328125 1581.1640625 c 0,17,18
 603.811523438 1525.13574219 603.811523438 1525.13574219 585.112304688 1394.29199219 c 0,19,20
 583.17578125 1279.73242188 583.17578125 1279.73242188 583.48828125 1164.95214844 c 1,21,22
 958.124023438 1114.83984375 958.124023438 1114.83984375 1243.41601562 1210.24804688 c 0,23,24
 1338.70410156 1247.70019531 1338.70410156 1247.70019531 1390.52832031 1327.28417969 c 128,-1,25
 1442.3515625 1406.86816406 1442.3515625 1406.86816406 1421.14355469 1491.76367188 c 0,26,27
 1399.55957031 1595.95214844 1399.55957031 1595.95214844 1286.24023438 1656.90039062 c 128,-1,28
 1172.92382812 1717.84375 1172.92382812 1717.84375 1034.90039062 1727.86035156 c 0,29,30
 959.255859375 1720.87988281 959.255859375 1720.87988281 903.540039062 1767.19238281 c 128,-1,31
 847.82421875 1813.5078125 847.82421875 1813.5078125 848.055664062 1879.52832031 c 0,32,33
 845.811523438 1953.02832031 845.811523438 1953.02832031 923.131835938 1997.81640625 c 128,-1,34
 1000.45214844 2042.59960938 1000.45214844 2042.59960938 1083.171875 2018.66796875 c 0,35,36
 1543.21191406 1966.94433594 1543.21191406 1966.94433594 1700.87597656 1719.21191406 c 0,37,38
 1807.27246094 1555.45214844 1807.27246094 1555.45214844 1763.77246094 1370.79980469 c 128,-1,39
 1720.27246094 1186.15234375 1720.27246094 1186.15234375 1561.27636719 1058.29589844 c 0,40,41
 1450.11230469 967.767578125 1450.11230469 967.767578125 1286.48828125 917.188476562 c 1,42,43
 1383.3203125 760.467773438 1383.3203125 760.467773438 1562.79589844 485.475585938 c 128,-1,44
 1742.27246094 210.48046875 1742.27246094 210.48046875 1839.10351562 53.759765625 c 1,0,1
  Spiro
    1839.11 53.76 v
    1764.87 13.312 o
    1665.03 -1.536 o
    1560.07 11.264 o
    1470.47 53.76 v
    1354.95 228.248 o
    1195.48 457.169 o
    1035.99 686.099 o
    920.466 860.616 v
    582.226 860.616 v
    580.12 694.804 o
    575.758 466.647 o
    571.519 233.762 o
    569.782 53.76 v
    475.57 11.7764 o
    395.32 0 o
    315.152 15.1036 o
    221.185 53.76 v
    221.185 1487.36 ]
    253.081 1554.52 o
    330.556 1597.99 o
    424.859 1609.59 o
    507.238 1581.16 o
    574.994 1506.43 o
    585.114 1394.29 o
    583.739 1279.68 o
    583.49 1164.95 v
    935.789 1151.22 o
    1243.42 1210.25 o
    1327.84 1258.23 o
    1390.53 1327.28 o
    1424.09 1408.2 o
    1421.15 1491.76 o
    1376.63 1585.14 o
    1286.24 1656.9 o
    1166.75 1705.11 o
    1034.9 1727.86 o
    964.238 1734.2 o
    903.54 1767.19 o
    861.811 1818.43 o
    848.058 1879.53 o
    865.703 1945.85 o
    923.133 1997.82 o
    1001.8 2025.42 o
    1083.17 2018.67 o
    1467.62 1917.94 o
    1700.88 1719.21 o
    1769.8 1550.23 o
    1763.77 1370.8 o
    1691.4 1200.35 o
    1561.28 1058.3 o
    1437 977.755 o
    1286.49 917.188 v
    1403.98 730.899 o
    1562.8 485.474 o
    1721.61 240.049 o
    0 0 z
  EndSpiro
EndSplineSet
Validated: 524321
EndChar

StartChar: S
Encoding: 83 83 21
Width: 2043
GlyphClass: 1
Flags: W
LayerCount: 2
Fore
SplineSet
1031 2376 m 0,0,1
 1394 2365 1394 2365 1729 2252 c 0,2,3
 1800 2220 1800 2220 1802 2149 c 128,-1,4
 1804 2078 1804 2078 1734 2045 c 0,5,6
 1707 2030 1707 2030 1673 2028 c 128,-1,7
 1639 2026 1639 2026 1614.5 2031 c 128,-1,8
 1590 2036 1590 2036 1550 2047 c 128,-1,9
 1510 2058 1510 2058 1492 2062 c 0,10,11
 1110 2144 1110 2144 877 2108 c 0,12,13
 749 2088 749 2088 660.5 2003.5 c 128,-1,14
 572 1919 572 1919 584 1816 c 0,15,16
 581 1663 581 1663 807 1566 c 0,17,18
 900 1521 900 1521 1165 1437.5 c 128,-1,19
 1430 1354 1430 1354 1552 1274 c 0,20,21
 1687 1190 1687 1190 1762 1067 c 128,-1,22
 1837 944 1837 944 1814 816 c 1,23,24
 1778 742 1778 742 1673 724.5 c 128,-1,25
 1568 707 1568 707 1503 766 c 0,26,27
 1465 801 1465 801 1446.5 886 c 128,-1,28
 1428 971 1428 971 1398 1005 c 0,29,30
 1367 1043 1367 1043 1327 1073 c 128,-1,31
 1287 1103 1287 1103 1225 1129.5 c 128,-1,32
 1163 1156 1163 1156 1131 1168 c 128,-1,33
 1099 1180 1099 1180 1013.5 1206 c 128,-1,34
 928 1232 928 1232 912 1237 c 0,35,36
 521 1352 521 1352 342 1536 c 0,37,38
 249 1628 249 1628 227.5 1752.5 c 128,-1,39
 206 1877 206 1877 258 1987 c 0,40,41
 322 2158 322 2158 521.5 2262.5 c 128,-1,42
 721 2367 721 2367 953 2372 c 0,43,44
 992 2374 992 2374 1031 2376 c 0,0,1
309 350 m 0,45,46
 330 352 330 352 349 347 c 0,47,48
 368 344 368 344 393 333 c 0,49,50
 421 324 421 324 446 318 c 0,51,52
 683 274 683 274 720 273 c 0,53,54
 822 266 822 266 964 248 c 0,55,56
 1060 233 1060 233 1097 195 c 0,57,58
 1138 155 1138 155 1125 100 c 0,59,60
 1114 53 1114 53 1054 21 c 0,61,62
 1006 -4 1006 -4 949 0 c 0,63,64
 597 12 597 12 266 119 c 0,65,66
 228 131 228 131 199 175 c 0,67,68
 179 205 179 205 186 249 c 0,69,70
 192 286 192 286 226.5 315 c 128,-1,71
 261 344 261 344 309 350 c 0,45,46
EndSplineSet
Validated: 33
EndChar

StartChar: T
Encoding: 84 84 22
Width: 1982
GlyphClass: 1
Flags: W
HStem: 2088 284<189 838 1116 1792>
VStem: 837 279<10 2088>
LayerCount: 2
Fore
SplineSet
1693 2372 m 1,0,1
 1783 2359 1783 2359 1801 2247 c 0,2,3
 1820 2134 1820 2134 1741 2088 c 1,4,-1
 1116 2088 l 1,5,6
 1115 1065 1115 1065 1115 16 c 1,7,8
 976 -21 976 -21 837 16 c 1,9,-1
 838 2088 l 1,10,-1
 251 2088 l 1,11,12
 190 2110 190 2110 174 2175 c 0,13,14
 157 2241 157 2241 188 2302 c 0,15,16
 223 2368 223 2368 282 2367 c 2,17,-1
 1693 2372 l 1,0,1
EndSplineSet
Validated: 33
EndChar

StartChar: U
Encoding: 85 85 23
Width: 2138
GlyphClass: 1
Flags: W
LayerCount: 2
Fore
SplineSet
1081 0 m 0,0,1
 868 -8 868 -8 675 91 c 0,2,3
 483 193 483 193 377 355 c 0,4,5
 312 451 312 451 280 580 c 0,6,7
 249 712 249 712 246 790 c 0,8,9
 246 868 246 868 244 1032 c 0,10,11
 233 1417 233 1417 233 2229 c 0,12,13
 233 2302 233 2302 321 2346 c 0,14,15
 406 2392 406 2392 479 2343 c 0,16,17
 524 2314 524 2314 543 2269 c 0,18,19
 561 2220 561 2220 561 2176 c 0,20,21
 557 2130 557 2130 560 2082 c 0,22,23
 565 1515 565 1515 571 1100 c 1,24,25
 1061 1098 1061 1098 1547 1102 c 1,26,27
 1556 1716 1556 1716 1540 2167 c 0,28,29
 1540 2171 1540 2171 1544 2190 c 0,30,31
 1548 2212 1548 2212 1548 2217 c 0,32,33
 1548 2224 1548 2224 1553 2243 c 0,34,35
 1556 2261 1556 2261 1560 2270 c 0,36,37
 1565 2277 1565 2277 1569 2293.5 c 128,-1,38
 1573 2310 1573 2310 1581 2317 c 0,39,40
 1589 2326 1589 2326 1597 2334 c 0,41,42
 1606 2342 1606 2342 1617 2349 c 0,43,44
 1630 2355 1630 2355 1641 2357 c 0,45,46
 1712 2388 1712 2388 1786 2349 c 0,47,48
 1855 2314 1855 2314 1861 2241 c 0,49,50
 1876 2109 1876 2109 1879 1749 c 0,51,52
 1880 1638 1880 1638 1880 1556 c 0,53,54
 1879 1475 1879 1475 1881 1373 c 0,55,56
 1880 1306 1880 1306 1879 1160 c 0,57,58
 1880 1016 1880 1016 1875 903 c 0,59,60
 1871 790 1871 790 1859 690 c 0,61,62
 1819 356 1819 356 1602 186 c 0,63,64
 1384 12 1384 12 1081 0 c 0,0,1
611 842 m 0,65,66
 594 839 594 839 576 840 c 1,67,68
 581 703 581 703 625 572 c 0,69,70
 695 371 695 371 867 299 c 0,71,72
 996 255 996 255 1123 268 c 0,73,74
 1309 285 1309 285 1430 448 c 0,75,76
 1555 621 1555 621 1548 842 c 1,77,78
 1080 839 1080 839 611 842 c 0,65,66
EndSplineSet
Validated: 33
EndChar

StartChar: V
Encoding: 86 86 24
Width: 2011
GlyphClass: 1
Flags: W
LayerCount: 2
Fore
SplineSet
1813 1921 m 1,0,1
 1715 1633 1715 1633 1507 1003 c 128,-1,2
 1299 373 1299 373 1187 45 c 1,3,4
 1003 -47 1003 -47 819 45 c 1,5,6
 733 297 733 297 513 927.5 c 128,-1,7
 293 1558 293 1558 180 1897 c 0,8,9
 158 1971 158 1971 197 2039 c 128,-1,10
 236 2107 236 2107 316 2101 c 0,11,12
 347 2107 347 2107 564.5 2106 c 128,-1,13
 782 2105 782 2105 814 2105 c 0,14,15
 888 2105 888 2105 1232.5 2105 c 128,-1,16
 1577 2105 1577 2105 1652 2105 c 0,17,18
 1722 2101 1722 2101 1770 2045 c 128,-1,19
 1818 1989 1818 1989 1813 1921 c 1,0,1
1475 1810 m 1,20,21
 1468 1810 1468 1810 1432.5 1810 c 128,-1,22
 1397 1810 1397 1810 1389 1810 c 0,23,24
 1311 1811 1311 1811 1152.5 1810 c 128,-1,25
 994 1809 994 1809 916 1810 c 0,26,27
 765 1808 765 1808 710 1810 c 0,28,29
 699 1811 699 1811 605.5 1810.5 c 128,-1,30
 512 1810 512 1810 501 1810 c 1,31,32
 554 1656 554 1656 607 1502 c 0,33,34
 629 1438 629 1438 768.5 1031 c 128,-1,35
 908 624 908 624 980 408 c 0,36,37
 992 343 992 343 1010 416 c 0,38,39
 1151 827 1151 827 1475 1810 c 1,20,21
EndSplineSet
Validated: 33
EndChar

StartChar: W
Encoding: 87 87 25
Width: 2048
GlyphClass: 1
Flags: W
LayerCount: 2
Fore
SplineSet
1823 2071 m 0,0,1
 1782 1735 1782 1735 1703.5 1059.5 c 128,-1,2
 1625 384 1625 384 1583 46 c 1,3,4
 1532 -7 1532 -7 1450.5 1.5 c 128,-1,5
 1369 10 1369 10 1341 86 c 0,6,7
 1303 179 1303 179 1236 347 c 128,-1,8
 1169 515 1169 515 1112.5 653.5 c 128,-1,9
 1056 792 1056 792 1005 913 c 1,10,11
 945 760 945 760 847.5 466.5 c 128,-1,12
 750 173 750 173 703 46 c 1,13,14
 651 -8 651 -8 556.5 0 c 128,-1,15
 462 8 462 8 451 94 c 0,16,17
 415 395 415 395 328.5 1111 c 128,-1,18
 242 1827 242 1827 197 2213 c 0,19,20
 203 2287 203 2287 260.5 2316 c 128,-1,21
 318 2345 318 2345 374 2312 c 128,-1,22
 430 2279 430 2279 430 2203 c 0,23,24
 453 2099 453 2099 475.5 1903.5 c 128,-1,25
 498 1708 498 1708 511 1633 c 0,26,27
 616 838 616 838 640 662 c 1,28,29
 682 732 682 732 734 875.5 c 128,-1,30
 786 1019 786 1019 809 1066 c 0,31,32
 916 1350 916 1350 988 1440 c 1,33,34
 1028 1451 1028 1451 1052 1447.5 c 128,-1,35
 1076 1444 1076 1444 1099 1407 c 128,-1,36
 1122 1370 1122 1370 1133.5 1338.5 c 128,-1,37
 1145 1307 1145 1307 1161.5 1261 c 128,-1,38
 1178 1215 1178 1215 1188 1194 c 0,39,40
 1373 710 1373 710 1402 648 c 1,41,42
 1427 842 1427 842 1497 1400.5 c 128,-1,43
 1567 1959 1567 1959 1609 2264 c 0,44,45
 1636 2365 1636 2365 1732 2343 c 0,46,47
 1822 2323 1822 2323 1838 2234 c 0,48,49
 1844 2202 1844 2202 1834 2169 c 0,50,51
 1833 2155 1833 2155 1828.5 2122 c 128,-1,52
 1824 2089 1824 2089 1823 2071 c 0,0,1
EndSplineSet
Validated: 33
EndChar

StartChar: X
Encoding: 88 88 26
Width: 2035
GlyphClass: 1
Flags: W
LayerCount: 2
Fore
SplineSet
608 2459 m 0,0,1
 688 2458 688 2458 748 2407.5 c 128,-1,2
 808 2357 808 2357 801 2291 c 0,3,4
 799 2252 799 2252 772.5 2219.5 c 128,-1,5
 746 2187 746 2187 699 2150 c 128,-1,6
 652 2113 652 2113 635 2094 c 0,7,8
 616 2077 616 2077 617 2069 c 128,-1,9
 618 2061 618 2061 636 2041.5 c 128,-1,10
 654 2022 654 2022 658 2014 c 0,11,12
 832 1784 832 1784 1006 1553 c 1,13,14
 1006 1491 1006 1491 1006 1368 c 128,-1,15
 1006 1245 1006 1245 1006 1184 c 1,16,-1
 848 1184 l 1,17,-1
 1006 1184 l 1,18,19
 1006 1122 1006 1122 1006 999 c 128,-1,20
 1006 876 1006 876 1006 814 c 1,21,22
 832 584 832 584 658 354 c 0,23,24
 655 346 655 346 636.5 326 c 128,-1,25
 618 306 618 306 617 298 c 128,-1,26
 616 290 616 290 635 273 c 0,27,28
 653 254 653 254 699.5 217 c 128,-1,29
 746 180 746 180 772.5 147.5 c 128,-1,30
 799 115 799 115 801 76 c 0,31,32
 810 -7 810 -7 720 -60 c 128,-1,33
 630 -113 630 -113 535 -80 c 1,34,-1
 297 114 l 2,35,36
 230 151 230 151 207.5 220 c 128,-1,37
 185 289 185 289 210 349 c 0,38,39
 319 512 319 512 526 811.5 c 128,-1,40
 733 1111 733 1111 782 1184 c 1,41,42
 733 1256 733 1256 526 1555.5 c 128,-1,43
 319 1855 319 1855 210 2018 c 0,44,45
 185 2079 185 2079 207.5 2147.5 c 128,-1,46
 230 2216 230 2216 297 2253 c 2,47,-1
 535 2447 l 2,48,49
 570 2460 570 2460 608 2459 c 0,0,1
1006 1184 m 1,50,-1
 1237 1184 l 1,51,52
 1287 1258 1287 1258 1490.5 1557 c 128,-1,53
 1694 1856 1694 1856 1802 2018 c 0,54,55
 1827 2079 1827 2079 1804.5 2147.5 c 128,-1,56
 1782 2216 1782 2216 1715 2253 c 2,57,-1
 1476 2447 l 1,58,59
 1381 2480 1381 2480 1291.5 2427 c 128,-1,60
 1202 2374 1202 2374 1211 2291 c 0,61,62
 1213 2252 1213 2252 1239 2219.5 c 128,-1,63
 1265 2187 1265 2187 1312.5 2150 c 128,-1,64
 1360 2113 1360 2113 1377 2094 c 0,65,66
 1396 2077 1396 2077 1395 2069 c 128,-1,67
 1394 2061 1394 2061 1376 2041.5 c 128,-1,68
 1358 2022 1358 2022 1354 2014 c 0,69,70
 1286 1924 1286 1924 1157.5 1753.5 c 128,-1,71
 1029 1583 1029 1583 1006 1553 c 1,72,73
 1006 1491 1006 1491 1006 1368.5 c 128,-1,74
 1006 1246 1006 1246 1006 1184 c 1,50,-1
1006 1184 m 1,75,76
 1045 1184 1045 1184 1122 1184 c 128,-1,77
 1199 1184 1199 1184 1237 1184 c 1,78,79
 1287 1110 1287 1110 1490.5 811 c 128,-1,80
 1694 512 1694 512 1802 349 c 0,81,82
 1827 288 1827 288 1804.5 219.5 c 128,-1,83
 1782 151 1782 151 1715 114 c 2,84,-1
 1476 -80 l 1,85,86
 1381 -113 1381 -113 1291.5 -60 c 128,-1,87
 1202 -7 1202 -7 1211 76 c 0,88,89
 1213 115 1213 115 1239 147.5 c 128,-1,90
 1265 180 1265 180 1312.5 217 c 128,-1,91
 1360 254 1360 254 1377 273 c 0,92,93
 1396 290 1396 290 1395 298 c 128,-1,94
 1394 306 1394 306 1376 325.5 c 128,-1,95
 1358 345 1358 345 1354 354 c 0,96,97
 1296 431 1296 431 1180 584.5 c 128,-1,98
 1064 738 1064 738 1006 814 c 1,99,100
 1006 876 1006 876 1006 999 c 128,-1,101
 1006 1122 1006 1122 1006 1184 c 1,75,76
EndSplineSet
Validated: 37
EndChar

StartChar: Y
Encoding: 89 89 27
Width: 2007
GlyphClass: 1
Flags: W
LayerCount: 2
Fore
SplineSet
1640 2291 m 0,0,1
 1730 2307 1730 2307 1784.5 2233.5 c 128,-1,2
 1839 2160 1839 2160 1811 2081 c 0,3,4
 1772 2001 1772 2001 1686.5 1857 c 128,-1,5
 1601 1713 1601 1713 1580 1675 c 0,6,7
 1364 1305 1364 1305 1147 932 c 1,8,9
 1146 767 1146 767 1148.5 467.5 c 128,-1,10
 1151 168 1151 168 1151 49 c 1,11,12
 987 -49 987 -49 823 49 c 1,13,14
 823 174 823 174 825.5 470.5 c 128,-1,15
 828 767 828 767 828 930 c 1,16,17
 506 1500 506 1500 183 2070 c 1,18,19
 158 2153 158 2153 226 2220.5 c 128,-1,20
 294 2288 294 2288 380 2254 c 0,21,22
 425 2234 425 2234 456 2193.5 c 128,-1,23
 487 2153 487 2153 517 2092.5 c 128,-1,24
 547 2032 547 2032 566 2006 c 0,25,26
 780 1624 780 1624 998 1243 c 1,27,28
 1092 1406 1092 1406 1274.5 1730.5 c 128,-1,29
 1457 2055 1457 2055 1548 2214 c 0,30,31
 1588 2283 1588 2283 1640 2291 c 0,0,1
EndSplineSet
Validated: 33
EndChar

StartChar: Z
Encoding: 90 90 28
Width: 2031
GlyphClass: 1
Flags: W
LayerCount: 2
Fore
SplineSet
1771 0 m 1,0,-1
 256 0 l 1,1,2
 236 106 236 106 263 280 c 1,3,4
 346 487 346 487 1411 2086 c 1,5,-1
 1407 2086 l 1,6,-1
 1403 2086 l 1,7,-1
 1399 2086 l 1,8,-1
 1395 2086 l 1,9,-1
 1391 2086 l 1,10,-1
 1387 2086 l 1,11,-1
 1383 2086 l 1,12,-1
 1378 2086 l 1,13,-1
 1374 2086 l 1,14,-1
 1370 2086 l 1,15,-1
 1366 2086 l 1,16,-1
 1362 2086 l 1,17,-1
 1358 2086 l 1,18,-1
 1354 2086 l 1,19,-1
 1350 2086 l 1,20,-1
 1346 2086 l 1,21,-1
 1342 2086 l 1,22,-1
 1337 2086 l 1,23,-1
 1333 2086 l 1,24,-1
 1329 2086 l 1,25,-1
 1325 2086 l 1,26,-1
 1321 2086 l 1,27,-1
 1317 2086 l 1,28,-1
 1313 2086 l 1,29,-1
 1309 2086 l 1,30,-1
 1305 2086 l 1,31,-1
 1301 2086 l 1,32,33
 1300 2086 1300 2086 1296 2086 c 1,34,-1
 1292 2086 l 1,35,-1
 1288 2086 l 1,36,-1
 1284 2086 l 1,37,-1
 1280 2086 l 1,38,-1
 1276 2086 l 1,39,-1
 1272 2086 l 1,40,-1
 1268 2086 l 1,41,-1
 1264 2086 l 1,42,-1
 1260 2086 l 1,43,-1
 1256 2086 l 1,44,-1
 1251 2086 l 1,45,-1
 1247 2086 l 1,46,-1
 1243 2086 l 1,47,-1
 1239 2086 l 1,48,-1
 1235 2086 l 1,49,-1
 1231 2086 l 1,50,-1
 1227 2086 l 1,51,-1
 1223 2086 l 1,52,-1
 1219 2086 l 1,53,-1
 1215 2086 l 1,54,-1
 1210 2086 l 1,55,-1
 1206 2086 l 1,56,-1
 1202 2086 l 1,57,-1
 1198 2086 l 1,58,-1
 1194 2086 l 1,59,-1
 1190 2086 l 1,60,-1
 1186 2086 l 1,61,-1
 1182 2086 l 1,62,-1
 1178 2086 l 1,63,-1
 1174 2086 l 1,64,-1
 1170 2086 l 1,65,-1
 1165 2086 l 1,66,-1
 1161 2086 l 1,67,-1
 1157 2086 l 1,68,-1
 1153 2086 l 1,69,-1
 1149 2086 l 1,70,-1
 1145 2086 l 1,71,-1
 1141 2086 l 1,72,-1
 1137 2086 l 1,73,-1
 1133 2086 l 1,74,-1
 1129 2086 l 1,75,-1
 1124 2086 l 1,76,-1
 1120 2086 l 1,77,-1
 1116 2086 l 1,78,-1
 1112 2086 l 1,79,-1
 1108 2086 l 1,80,-1
 1104 2086 l 1,81,-1
 1100 2086 l 1,82,-1
 1096 2086 l 1,83,-1
 1092 2086 l 1,84,-1
 1088 2086 l 1,85,-1
 1084 2086 l 1,86,-1
 1079 2086 l 1,87,-1
 1075 2086 l 1,88,-1
 1071 2087 l 1,89,-1
 1067 2087 l 1,90,-1
 1063 2087 l 1,91,-1
 1059 2087 l 1,92,-1
 1055 2087 l 1,93,-1
 1051 2087 l 1,94,-1
 1047 2087 l 1,95,-1
 1043 2087 l 1,96,-1
 1038 2087 l 1,97,-1
 1034 2087 l 1,98,-1
 1030 2087 l 1,99,-1
 1026 2087 l 1,100,-1
 1022 2087 l 1,101,-1
 1018 2087 l 1,102,-1
 1014 2087 l 1,103,-1
 1010 2087 l 1,104,-1
 1006 2087 l 1,105,-1
 1002 2087 l 1,106,-1
 997 2087 l 1,107,-1
 993 2087 l 1,108,-1
 989 2087 l 1,109,-1
 985 2087 l 1,110,-1
 981 2087 l 1,111,-1
 977 2087 l 1,112,-1
 973 2087 l 1,113,-1
 969 2087 l 1,114,-1
 965 2087 l 1,115,-1
 961 2087 l 1,116,-1
 957 2087 l 1,117,-1
 952 2087 l 1,118,-1
 948 2087 l 1,119,-1
 944 2087 l 1,120,-1
 940 2087 l 1,121,-1
 936 2087 l 1,122,-1
 932 2087 l 1,123,-1
 928 2087 l 1,124,-1
 924 2087 l 1,125,-1
 920 2087 l 1,126,-1
 916 2087 l 1,127,-1
 911 2087 l 1,128,-1
 904 2087 l 1,129,-1
 900 2087 l 1,130,-1
 896 2087 l 1,131,-1
 892 2087 l 1,132,-1
 888 2087 l 1,133,-1
 884 2087 l 1,134,-1
 880 2087 l 1,135,-1
 875 2087 l 1,136,-1
 871 2087 l 1,137,-1
 867 2087 l 1,138,-1
 863 2087 l 1,139,-1
 859 2087 l 1,140,-1
 855 2087 l 1,141,-1
 851 2087 l 1,142,-1
 847 2087 l 1,143,-1
 843 2087 l 1,144,-1
 839 2087 l 1,145,-1
 835 2087 l 1,146,-1
 830 2087 l 1,147,-1
 826 2087 l 1,148,-1
 822 2087 l 1,149,-1
 818 2087 l 1,150,-1
 814 2087 l 1,151,-1
 810 2087 l 1,152,-1
 806 2087 l 1,153,-1
 802 2087 l 1,154,-1
 798 2087 l 1,155,-1
 794 2087 l 1,156,-1
 789 2087 l 1,157,-1
 785 2087 l 1,158,-1
 781 2087 l 1,159,-1
 777 2087 l 1,160,-1
 773 2087 l 1,161,-1
 769 2087 l 1,162,-1
 765 2087 l 1,163,-1
 761 2087 l 1,164,-1
 757 2087 l 1,165,-1
 753 2087 l 1,166,-1
 748 2087 l 1,167,-1
 744 2087 l 1,168,-1
 740 2087 l 1,169,-1
 736 2087 l 1,170,-1
 732 2087 l 1,171,-1
 728 2087 l 1,172,-1
 724 2087 l 1,173,-1
 720 2087 l 1,174,-1
 716 2087 l 1,175,-1
 712 2087 l 1,176,-1
 708 2087 l 1,177,-1
 703 2087 l 1,178,-1
 699 2087 l 1,179,-1
 695 2087 l 1,180,-1
 691 2087 l 1,181,-1
 687 2087 l 1,182,-1
 683 2087 l 1,183,-1
 679 2087 l 1,184,-1
 675 2087 l 1,185,-1
 671 2087 l 1,186,-1
 667 2087 l 1,187,-1
 662 2087 l 1,188,-1
 658 2087 l 1,189,-1
 654 2087 l 1,190,-1
 650 2087 l 1,191,-1
 646 2087 l 1,192,-1
 642 2087 l 1,193,-1
 638 2087 l 1,194,-1
 634 2087 l 1,195,-1
 630 2087 l 1,196,-1
 626 2087 l 1,197,-1
 622 2087 l 1,198,-1
 617 2087 l 1,199,-1
 613 2087 l 1,200,-1
 609 2087 l 1,201,-1
 605 2087 l 1,202,-1
 601 2087 l 1,203,-1
 597 2087 l 1,204,-1
 593 2087 l 1,205,-1
 589 2087 l 1,206,-1
 585 2087 l 1,207,-1
 581 2087 l 1,208,-1
 576 2087 l 1,209,-1
 572 2087 l 1,210,-1
 568 2087 l 1,211,-1
 564 2087 l 1,212,-1
 560 2087 l 1,213,-1
 556 2087 l 1,214,-1
 552 2087 l 1,215,-1
 548 2088 l 1,216,-1
 544 2088 l 1,217,-1
 540 2088 l 1,218,-1
 535 2088 l 1,219,-1
 531 2088 l 1,220,-1
 527 2088 l 1,221,-1
 523 2088 l 1,222,-1
 519 2088 l 1,223,-1
 515 2088 l 1,224,-1
 511 2088 l 1,225,-1
 507 2088 l 1,226,-1
 503 2088 l 1,227,-1
 499 2088 l 1,228,-1
 495 2088 l 1,229,-1
 490 2088 l 1,230,-1
 486 2088 l 1,231,-1
 482 2088 l 1,232,-1
 478 2088 l 1,233,-1
 474 2088 l 1,234,-1
 470 2088 l 1,235,-1
 466 2088 l 1,236,-1
 462 2088 l 1,237,-1
 458 2088 l 1,238,-1
 454 2088 l 1,239,-1
 449 2088 l 1,240,-1
 445 2088 l 1,241,-1
 441 2088 l 1,242,-1
 437 2088 l 1,243,-1
 433 2088 l 1,244,-1
 429 2088 l 1,245,-1
 425 2088 l 1,246,-1
 421 2088 l 1,247,-1
 417 2088 l 1,248,-1
 413 2088 l 1,249,-1
 409 2088 l 1,250,-1
 404 2088 l 1,251,-1
 397 2088 l 2,252,253
 395 2089 395 2089 374 2090 c 0,254,255
 354 2089 354 2089 348 2092 c 0,256,257
 342 2093 342 2093 324 2094 c 0,258,259
 305 2097 305 2097 298 2098 c 0,260,261
 293 2101 293 2101 275 2104 c 0,262,263
 260 2105 260 2105 251 2112 c 0,264,265
 243 2113 243 2113 231 2123 c 0,266,267
 219 2130 219 2130 212 2137 c 0,268,269
 203 2142 203 2142 197 2154 c 0,270,271
 190 2162 190 2162 184 2176 c 0,272,273
 145 2244 145 2244 199 2312 c 0,274,275
 247 2371 247 2371 334 2372 c 0,276,277
 1030 2371 1030 2371 1730 2372 c 0,278,279
 1763 2371 1763 2371 1789 2341 c 0,280,281
 1809 2314 1809 2314 1808 2286 c 0,282,283
 1809 2253 1809 2253 1808 2220 c 0,284,285
 1805 2183 1805 2183 1808 2158 c 0,286,287
 1817 2114 1817 2114 1797 2078 c 0,288,289
 1780 2040 1780 2040 1738 1994 c 0,290,291
 1697 1946 1697 1946 1686 1927 c 0,292,293
 1001 876 1001 876 646 272 c 1,294,295
 1194 270 1194 270 1771 269 c 1,296,297
 1869 131 1869 131 1771 0 c 1,0,-1
EndSplineSet
Validated: 33
EndChar

StartChar: a
Encoding: 97 97 35
Width: 2326
GlyphClass: 1
Flags: W
LayerCount: 2
Fore
SplineSet
2135 153 m 1,0,1
 2122 57 2122 57 2019.5 15.5 c 128,-1,2
 1917 -26 1917 -26 1836 35 c 0,3,4
 1798 64 1798 64 1776 106 c 128,-1,5
 1754 148 1754 148 1737 211 c 128,-1,6
 1720 274 1720 274 1709 299 c 2,7,-1
 1666 431 l 1,8,9
 1481 431 1481 431 1111 431 c 128,-1,10
 741 431 741 431 556 432 c 1,11,12
 533 335 533 335 427.5 295 c 128,-1,13
 322 255 322 255 237 315 c 0,14,15
 167 358 167 358 154 442.5 c 128,-1,16
 141 527 141 527 188 590 c 1,17,18
 233 706 233 706 324.5 916 c 128,-1,19
 416 1126 416 1126 449 1207 c 0,20,21
 692 1779 692 1779 914 2327 c 1,22,23
 1129 2419 1129 2419 1344 2327 c 1,24,25
 1446 2026 1446 2026 1693 1413 c 128,-1,26
 1940 800 1940 800 2046 478 c 0,27,28
 2053 451 2053 451 2092.5 335 c 128,-1,29
 2132 219 2132 219 2135 153 c 1,0,1
1389 1401 m 1,30,-1
 1163 2046 l 1,31,32
 1130 2055 1130 2055 1097 2046 c 1,33,34
 1022 1855 1022 1855 848 1401 c 1,35,36
 848 1401 848 1401 1389 1401 c 1,30,-1
693 1093 m 1,37,38
 670 948 670 948 649 803 c 0,39,40
 640 781 640 781 649 775.5 c 128,-1,41
 658 770 658 770 683 772.5 c 128,-1,42
 708 775 708 775 715 774 c 0,43,44
 810 776 810 776 1132.5 774.5 c 128,-1,45
 1455 773 1455 773 1550 773 c 1,46,47
 1519 1022 1519 1022 1508 1081 c 1,48,49
 1100 1091 1100 1091 693 1093 c 1,37,38
EndSplineSet
Validated: 33
EndChar

StartChar: b
Encoding: 98 98 36
Width: 2174
GlyphClass: 1
Flags: W
LayerCount: 2
Fore
SplineSet
817 -1 m 0,0,1
 545 -4 545 -4 230 25 c 1,2,3
 228 967 228 967 234 1908 c 1,4,5
 275 1989 275 1989 383.5 2003 c 128,-1,6
 492 2017 492 2017 555 1947 c 0,7,8
 579 1914 579 1914 588 1850 c 128,-1,9
 597 1786 597 1786 595 1738 c 2,10,-1
 592 1691 l 2,11,12
 590 1536 590 1536 589 1383 c 1,13,14
 767 1365 767 1365 988.5 1381.5 c 128,-1,15
 1210 1398 1210 1398 1371 1469 c 0,16,17
 1470 1510 1470 1510 1517 1601.5 c 128,-1,18
 1564 1693 1564 1693 1536 1787 c 0,19,20
 1509 1895 1509 1895 1402.5 1968 c 128,-1,21
 1296 2041 1296 2041 1164 2059 c 0,22,23
 1063 2082 1063 2082 1043 2182 c 128,-1,24
 1023 2282 1023 2282 1109 2334 c 0,25,26
 1145 2356 1145 2356 1192.5 2360.5 c 128,-1,27
 1240 2365 1240 2365 1273.5 2359 c 128,-1,28
 1307 2353 1307 2353 1365.5 2338 c 128,-1,29
 1424 2323 1424 2323 1447 2318 c 0,30,31
 1626 2267 1626 2267 1759 2149.5 c 128,-1,32
 1892 2032 1892 2032 1924 1877 c 0,33,34
 1964 1695 1964 1695 1889 1518 c 128,-1,35
 1814 1341 1814 1341 1636 1258 c 0,36,37
 1631 1254 1631 1254 1509 1210 c 0,38,39
 1454 1190 1454 1190 1542 1176 c 0,40,41
 1730 1120 1730 1120 1846.5 969 c 128,-1,42
 1963 818 1963 818 1949 645 c 0,43,44
 1945 473 1945 473 1833.5 324.5 c 128,-1,45
 1722 176 1722 176 1544 106 c 0,46,47
 1447 63 1447 63 1318.5 39 c 128,-1,48
 1190 15 1190 15 1104.5 10 c 128,-1,49
 1019 5 1019 5 865 0 c 0,50,51
 833 0 833 0 817 -1 c 0,0,1
719 1017 m 0,52,53
 660 1013 660 1013 599 1008 c 1,54,55
 596 664 596 664 596 320 c 1,56,57
 790 293 790 293 1001 305 c 0,58,59
 1250 323 1250 323 1385 392 c 0,60,61
 1536 464 1536 464 1553 600 c 0,62,63
 1584 756 1584 756 1469 853 c 0,64,65
 1375 946 1375 946 1170 988 c 0,66,67
 1041 1017 1041 1017 719 1017 c 0,52,53
EndSplineSet
Validated: 33
EndChar

StartChar: c
Encoding: 99 99 37
Width: 2314
GlyphClass: 1
Flags: W
LayerCount: 2
Fore
SplineSet
1460 1989 m 0,0,1
 1179 2003 1179 2003 957 1890 c 0,2,3
 683 1727 683 1727 612 1438 c 0,4,5
 531 1152 531 1152 603 845 c 0,6,7
 670 620 670 620 890 472 c 128,-1,8
 1110 324 1110 324 1371 316 c 0,9,10
 1473 300 1473 300 1508.5 203 c 128,-1,11
 1544 106 1544 106 1471 39 c 0,12,13
 1418 -11 1418 -11 1322.5 -14.5 c 128,-1,14
 1227 -18 1227 -18 1157 0 c 0,15,16
 889 35 889 35 663 176.5 c 128,-1,17
 437 318 437 318 328 534 c 0,18,19
 113 932 113 932 229 1497 c 0,20,21
 270 1727 270 1727 422 1920 c 128,-1,22
 574 2113 574 2113 801 2210 c 0,23,24
 1092 2338 1092 2338 1428.5 2317 c 128,-1,25
 1765 2296 1765 2296 2034 2133 c 0,26,27
 2117 2092 2117 2092 2113.5 1995.5 c 128,-1,28
 2110 1899 2110 1899 2020 1870 c 0,29,30
 1949 1843 1949 1843 1829 1894.5 c 128,-1,31
 1709 1946 1709 1946 1682 1950 c 0,32,33
 1534 1987 1534 1987 1460 1989 c 0,0,1
EndSplineSet
Validated: 33
EndChar

StartChar: d
Encoding: 100 100 38
Width: 2105
GlyphClass: 1
Flags: W
LayerCount: 2
Fore
SplineSet
643 0 m 0,0,1
 445 -2 445 -2 256 48 c 1,2,3
 249 787 249 787 246 2192 c 1,4,5
 522 2270 522 2270 750 2250 c 0,6,7
 1266 2229 1266 2229 1536 1959 c 0,8,9
 1763 1731 1763 1731 1845 1408.5 c 128,-1,10
 1927 1086 1927 1086 1832 778 c 0,11,12
 1757 531 1757 531 1587.5 338.5 c 128,-1,13
 1418 146 1418 146 1186 73 c 0,14,15
 950 1 950 1 643 0 c 0,0,1
731 1923 m 0,16,17
 645 1914 645 1914 562 1885 c 1,18,19
 561 1779 561 1779 563 1338 c 1,20,21
 563 1338 563 1338 1048 1341 c 2,22,23
 1127 1347 1127 1347 1179 1276.5 c 128,-1,24
 1231 1206 1231 1206 1201 1133 c 0,25,26
 1185 1073 1185 1073 1126.5 1044.5 c 128,-1,27
 1068 1016 1068 1016 1003 1024 c 2,28,29
 1003 1024 1003 1024 563 1021 c 1,30,-1
 563 417 l 2,31,32
 574 381 574 381 594 362 c 128,-1,33
 614 343 614 343 632.5 339 c 128,-1,34
 651 335 651 335 687 334 c 0,35,36
 1051 314 1051 314 1244 455 c 0,37,38
 1404 571 1404 571 1485 763 c 128,-1,39
 1566 955 1566 955 1557 1162 c 0,40,41
 1551 1352 1551 1352 1464 1524 c 128,-1,42
 1377 1696 1377 1696 1226 1801 c 0,43,44
 1060 1916 1060 1916 731 1923 c 0,16,17
EndSplineSet
Validated: 33
EndChar

StartChar: e
Encoding: 101 101 39
Width: 2113
GlyphClass: 1
Flags: W
LayerCount: 2
Fore
SplineSet
410 2357 m 1,0,1
 1309 2367 1309 2367 1713 2354 c 0,2,3
 1809 2351 1809 2351 1856 2254 c 0,4,5
 1895 2179 1895 2179 1831 2098 c 0,6,7
 1801 2060 1801 2060 1733 2049 c 0,8,9
 1663 2036 1663 2036 1608 2041 c 2,10,-1
 1553 2045 l 1,11,-1
 650 2044 l 1,12,-1
 646 1778 l 1,13,-1
 1252 1780 l 2,14,15
 1343 1780 1343 1780 1387 1682 c 0,16,17
 1420 1601 1420 1601 1368 1533 c 0,18,19
 1346 1504 1346 1504 1302 1486 c 0,20,21
 1260 1471 1260 1471 1234 1467 c 0,22,23
 1130 1446 1130 1446 1140 1464 c 0,24,25
 1141 1466 1141 1466 1062 1465 c 2,26,-1
 646 1465 l 1,27,28
 645 1438 645 1438 646 1385 c 0,29,30
 645 1331 645 1331 646 1306 c 1,31,-1
 1702 1306 l 2,32,33
 1793 1307 1793 1307 1846 1222 c 0,34,35
 1891 1155 1891 1155 1849 1075 c 0,36,37
 1826 1032 1826 1032 1775 1013 c 0,38,39
 1723 992 1723 992 1685 989 c 0,40,41
 1645 987 1645 987 1578 985 c 0,42,43
 1113 983 1113 983 646 984 c 1,44,-1
 646 314 l 1,45,46
 1203 315 1203 315 1764 313 c 1,47,48
 1842 291 1842 291 1874 217 c 0,49,50
 1899 160 1899 160 1857 82 c 0,51,52
 1846 62 1846 62 1831 46 c 0,53,54
 1818 33 1818 33 1792 22 c 0,55,56
 1768 12 1768 12 1753 7 c 0,57,58
 1739 0 1739 0 1704.5 0 c 128,-1,59
 1670 0 1670 0 1659.5 -2 c 128,-1,60
 1649 -4 1649 -4 1608 -2 c 0,61,62
 1567 0 1567 0 1563 -0 c 0,63,64
 981 0 981 0 404 0 c 0,65,66
 347 0 347 0 296 65 c 0,67,68
 253 115 253 115 250 181 c 0,69,70
 245 496 245 496 246 1147 c 0,71,72
 253 2166 253 2166 251 2171 c 0,73,74
 249 2248 249 2248 284 2292 c 0,75,76
 330 2347 330 2347 410 2357 c 1,0,1
EndSplineSet
Validated: 33
EndChar

StartChar: f
Encoding: 102 102 40
Width: 2076
GlyphClass: 1
Flags: W
HStem: 0 86G<247 643> 987 321<643 1549> 1488 316<643 1412> 1943 309<643 1863>
VStem: 247 396<0 987 1308 1488 1804 1943>
LayerCount: 2
Fore
SplineSet
643 0 m 1,0,-1
 247 0 l 1,1,2
 248 377 248 377 246.5 1083 c 128,-1,3
 245 1789 245 1789 246 2100 c 0,4,5
 252 2167 252 2167 321 2213.5 c 128,-1,6
 390 2260 390 2260 471 2252 c 2,7,-1
 1740 2252 l 2,8,9
 1827 2243 1827 2243 1867 2165.5 c 128,-1,10
 1907 2088 1907 2088 1857 2024 c 0,11,12
 1796 1935 1796 1935 1563 1943 c 0,13,14
 1104 1942 1104 1942 643 1943 c 1,15,-1
 643 1804 l 1,16,17
 664 1804 664 1804 1012 1803 c 0,18,19
 1351 1806 1351 1806 1376 1758 c 1,20,21
 1457 1697 1457 1697 1423.5 1600.5 c 128,-1,22
 1390 1504 1390 1504 1279 1491 c 2,23,-1
 643 1488 l 1,24,-1
 643 1308 l 1,25,26
 1023 1309 1023 1309 1406 1307 c 0,27,28
 1495 1311 1495 1311 1551 1270 c 128,-1,29
 1607 1229 1607 1229 1612 1155 c 0,30,31
 1625 1083 1625 1083 1567.5 1030.5 c 128,-1,32
 1510 978 1510 978 1425 988 c 0,33,34
 1034 987 1034 987 643 987 c 1,35,-1
 643 0 l 1,0,-1
EndSplineSet
Validated: 33
EndChar

StartChar: g
Encoding: 103 103 41
Width: 2478
GlyphClass: 1
Flags: W
LayerCount: 2
Fore
SplineSet
1611 2354 m 0,0,1
 1835 2329 1835 2329 2014 2251 c 0,2,3
 2149 2188 2149 2188 2181 2161 c 0,4,5
 2232 2125 2232 2125 2223 2045 c 1,6,7
 2239 1960 2239 1960 2161 1919 c 0,8,9
 2079 1866 2079 1866 1958 1922 c 0,10,11
 1770 1993 1770 1993 1627 2011 c 0,12,13
 1611 2013 1611 2013 1406 2017 c 0,14,15
 1384 2014 1384 2014 1339 2011 c 128,-1,16
 1294 2008 1294 2008 1271 2005 c 0,17,18
 1213 1999 1213 1999 1160 2024.5 c 128,-1,19
 1107 2050 1107 2050 1080 2098 c 0,20,21
 1049 2148 1049 2148 1061 2209.5 c 128,-1,22
 1073 2271 1073 2271 1122 2305 c 0,23,24
 1201 2348 1201 2348 1283 2355 c 0,25,26
 1322 2364 1322 2364 1492 2363 c 0,27,28
 1552 2360 1552 2360 1611 2354 c 0,0,1
608 1280 m 0,29,30
 582 890 582 890 774 673 c 0,31,32
 930 492 930 492 1203 420.5 c 128,-1,33
 1476 349 1476 349 1767 356 c 1,34,35
 1809 382 1809 382 1824.5 423.5 c 128,-1,36
 1840 465 1840 465 1842 535.5 c 128,-1,37
 1844 606 1844 606 1847 626 c 0,38,39
 1847 786 1847 786 1846 946 c 1,40,41
 1795 947 1795 947 1658.5 948 c 128,-1,42
 1522 949 1522 949 1449 953 c 0,43,44
 1364 961 1364 961 1321.5 1037 c 128,-1,45
 1279 1113 1279 1113 1325 1182 c 0,46,47
 1374 1264 1374 1264 1560 1258 c 0,48,49
 1850 1259 1850 1259 2140 1257 c 1,50,51
 2189 1237 2189 1237 2200.5 1193 c 128,-1,52
 2212 1149 2212 1149 2205.5 1084.5 c 128,-1,53
 2199 1020 2199 1020 2204 993 c 0,54,55
 2204 962 2204 962 2205 597 c 128,-1,56
 2206 232 2206 232 2202 201 c 0,57,58
 2185 167 2185 167 2146 144 c 128,-1,59
 2107 121 2107 121 2043 100 c 128,-1,60
 1979 79 1979 79 1958 70 c 0,61,62
 1474 -75 1474 -75 976 82 c 0,63,64
 772 149 772 149 606.5 276 c 128,-1,65
 441 403 441 403 345 576 c 0,66,67
 103 1009 103 1009 235 1597 c 1,68,69
 313 1726 313 1726 446 1709 c 0,70,71
 535 1705 535 1705 593.5 1632 c 128,-1,72
 652 1559 652 1559 629 1477 c 0,73,74
 628 1446 628 1446 617.5 1380.5 c 128,-1,75
 607 1315 607 1315 608 1280 c 0,29,30
EndSplineSet
Validated: 33
EndChar

StartChar: h
Encoding: 104 104 42
Width: 2154
GlyphClass: 1
Flags: W
LayerCount: 2
Fore
SplineSet
431 -7 m 0,0,1
 366 -15 366 -15 312 24.5 c 128,-1,2
 258 64 258 64 254 123 c 0,3,4
 244 140 244 140 246 249.5 c 128,-1,5
 248 359 248 359 247 384 c 0,6,7
 247 1236 247 1236 248 2087 c 1,8,9
 268 2156 268 2156 343 2187.5 c 128,-1,10
 418 2219 418 2219 488 2182 c 0,11,12
 509 2172 509 2172 524 2159 c 128,-1,13
 539 2146 539 2146 548 2127.5 c 128,-1,14
 557 2109 557 2109 562.5 2095.5 c 128,-1,15
 568 2082 568 2082 570 2056.5 c 128,-1,16
 572 2031 572 2031 572.5 2020 c 128,-1,17
 573 2009 573 2009 572.5 1979.5 c 128,-1,18
 572 1950 572 1950 571 1944 c 0,19,20
 572 1589 572 1589 572 1233 c 1,21,22
 1066 1230 1066 1230 1560 1231 c 1,23,24
 1559 1675 1559 1675 1561 2118 c 0,25,26
 1569 2192 1569 2192 1650 2229 c 128,-1,27
 1731 2266 1731 2266 1802 2226 c 0,28,29
 1840 2206 1840 2206 1860 2169.5 c 128,-1,30
 1880 2133 1880 2133 1883 2107 c 128,-1,31
 1886 2081 1886 2081 1885 2025 c 128,-1,32
 1884 1969 1884 1969 1885 1954 c 0,33,34
 1887 1053 1887 1053 1884 152 c 0,35,36
 1874 94 1874 94 1827.5 49 c 128,-1,37
 1781 4 1781 4 1716 11 c 0,38,39
 1641 9 1641 9 1602.5 66 c 128,-1,40
 1564 123 1564 123 1561 198 c 0,41,42
 1558 582 1558 582 1556 965 c 1,43,44
 1064 967 1064 967 572 967 c 1,45,-1
 572 773 l 1,46,47
 893 770 893 770 1215 772 c 0,48,49
 1274 768 1274 768 1300 709 c 128,-1,50
 1326 650 1326 650 1302.5 588.5 c 128,-1,51
 1279 527 1279 527 1215 517 c 2,52,-1
 572 517 l 1,53,54
 570 440 570 440 572 377.5 c 128,-1,55
 574 315 574 315 572 237.5 c 128,-1,56
 570 160 570 160 563 98 c 0,57,58
 542 11 542 11 431 -7 c 0,0,1
EndSplineSet
Validated: 33
EndChar

StartChar: i
Encoding: 105 105 43
Width: 991
GlyphClass: 1
Flags: W
LayerCount: 2
Fore
SplineSet
548 0 m 0,0,1
 534 0 534 0 501 0 c 128,-1,2
 468 -0 468 -0 450 0.5 c 128,-1,3
 432 1 432 1 406.5 6.5 c 128,-1,4
 381 12 381 12 362 23 c 0,5,6
 235 80 235 80 246 230 c 0,7,8
 246 346 246 346 246.5 1141.5 c 128,-1,9
 247 1937 247 1937 244 2053 c 0,10,11
 230 2131 230 2131 304.5 2194.5 c 128,-1,12
 379 2258 379 2258 485 2253 c 0,13,14
 588 2256 588 2256 661 2193.5 c 128,-1,15
 734 2131 734 2131 719 2055 c 0,16,17
 723 2007 723 2007 719.5 1901 c 128,-1,18
 716 1795 716 1795 718 1747 c 0,19,20
 727 385 727 385 727 150 c 0,21,22
 717 96 717 96 668 55 c 128,-1,23
 619 14 619 14 548 0 c 0,0,1
EndSplineSet
Validated: 33
EndChar

StartChar: j
Encoding: 106 106 44
Width: 1961
GlyphClass: 1
Flags: W
LayerCount: 2
Fore
SplineSet
1663 2105 m 1,0,-1
 1279 2105 l 1,1,2
 1263 1765 1263 1765 1265 1273.5 c 128,-1,3
 1267 782 1267 782 1267 753.5 c 128,-1,4
 1267 725 1267 725 1265 639 c 0,5,6
 1263 549 1263 549 1260 511 c 0,7,8
 1254 471 1254 471 1243 402 c 0,9,10
 1226 320 1226 320 1201 280 c 0,11,12
 1185 258 1185 258 1124 179 c 0,13,14
 1046 86 1046 86 957 41 c 0,15,16
 866 -4 866 -4 747 0 c 0,17,18
 575 4 575 4 519 25 c 0,19,20
 349 77 349 77 255 232 c 0,21,22
 149 398 149 398 161 559 c 0,23,24
 165 614 165 614 202 659 c 0,25,26
 235 701 235 701 292 707 c 0,27,28
 358 717 358 717 412 662 c 0,29,30
 456 614 456 614 454 543 c 0,31,32
 448 459 448 459 506 377 c 0,33,34
 554 307 554 307 646 281 c 0,35,36
 746 254 746 254 847 316 c 0,37,38
 947 377 947 377 965 474 c 1,39,-1
 976 1196 l 1,40,-1
 538 1196 l 1,41,42
 464 1250 464 1250 464 1331 c 0,43,44
 464 1409 464 1409 538 1466 c 1,45,-1
 976 1466 l 1,46,-1
 968 2105 l 1,47,-1
 575 2105 l 2,48,49
 501 2105 501 2105 459 2168 c 0,50,51
 411 2233 411 2233 451 2292 c 0,52,53
 472 2322 472 2322 482 2328 c 0,54,55
 510 2351 510 2351 517 2350 c 0,56,57
 595 2371 595 2371 562 2361 c 0,58,59
 415 2322 415 2322 477 2340 c 0,60,61
 644 2388 644 2388 656 2365 c 0,62,63
 656 2364 656 2364 700 2365 c 2,64,-1
 1705 2365 l 1,65,66
 1770 2343 1770 2343 1797 2273 c 0,67,68
 1812 2224 1812 2224 1770 2149 c 0,69,70
 1759 2130 1759 2130 1733 2122 c 0,71,72
 1694 2109 1694 2109 1685 2108 c 2,73,-1
 1663 2105 l 1,0,-1
EndSplineSet
Validated: 37
EndChar

StartChar: k
Encoding: 107 107 45
Width: 2027
GlyphClass: 1
Flags: W
LayerCount: 2
Fore
SplineSet
490 0 m 0,0,1
 422 -25 422 -25 354 0 c 0,2,3
 299 21 299 21 272 69 c 128,-1,4
 245 117 245 117 246 168 c 128,-1,5
 247 219 247 219 248 271 c 0,6,7
 246 1503 246 1503 247 2085 c 1,8,9
 264 2163 264 2163 350 2200.5 c 128,-1,10
 436 2238 436 2238 515 2198 c 0,11,12
 544 2184 544 2184 563 2161 c 128,-1,13
 582 2138 582 2138 589 2112.5 c 128,-1,14
 596 2087 596 2087 599.5 2057.5 c 128,-1,15
 603 2028 603 2028 601.5 2000 c 128,-1,16
 600 1972 600 1972 601 1945 c 2,17,-1
 603 1335 l 1,18,-1
 1370 2214 l 2,19,20
 1427 2288 1427 2288 1537.5 2236 c 128,-1,21
 1648 2184 1648 2184 1639 2077 c 1,22,-1
 1399 1753 l 1,23,-1
 1151 1457 l 1,24,25
 1257 1264 1257 1264 1470 877 c 128,-1,26
 1683 490 1683 490 1789 297 c 0,27,28
 1903 100 1903 100 1794 30 c 0,29,30
 1720 -14 1720 -14 1642 14 c 128,-1,31
 1564 42 1564 42 1519 113 c 0,32,33
 1214 647 1214 647 910 1182 c 1,34,35
 757 1049 757 1049 603 916 c 1,36,37
 603 784 603 784 603 519 c 128,-1,38
 603 254 603 254 602 122 c 0,39,40
 593 35 593 35 490 0 c 0,0,1
EndSplineSet
Validated: 33
EndChar

StartChar: l
Encoding: 108 108 46
Width: 2129
GlyphClass: 1
Flags: W
HStem: 0 412<658 1874>
VStem: 247 411<412 2215>
LayerCount: 2
Fore
SplineSet
1757 0 m 1,0,-1
 338 0 l 1,1,2
 290 18 290 18 267.5 121 c 128,-1,3
 245 224 245 224 246 318 c 2,4,-1
 247 412 l 2,5,6
 247 520 247 520 246.5 1253.5 c 128,-1,7
 246 1987 246 1987 247 2095 c 0,8,9
 257 2175 257 2175 351.5 2224.5 c 128,-1,10
 446 2274 446 2274 532 2241 c 0,11,12
 597 2219 597 2219 635.5 2166.5 c 128,-1,13
 674 2114 674 2114 659 2055 c 0,14,15
 661 1247 661 1247 658 412 c 1,16,17
 1200 412 1200 412 1743 409 c 0,18,19
 1828 401 1828 401 1889.5 301 c 128,-1,20
 1951 201 1951 201 1915 128 c 0,21,22
 1899 87 1899 87 1850 46 c 128,-1,23
 1801 5 1801 5 1757 0 c 1,0,-1
EndSplineSet
Validated: 33
EndChar

StartChar: m
Encoding: 109 109 47
Width: 2166
GlyphClass: 1
Flags: W
HStem: 0 86G<254 565 1585 1892> 754 266<580 935 1238 1594> 2290 82G<360 442 1705 1791>
VStem: 254 324<0 754 1020 1765> 1594 299<0 756 1020 1765>
LayerCount: 2
Fore
SplineSet
1892 0 m 1,0,-1
 1585 0 l 1,1,2
 1597 528 1597 528 1600 756 c 1,3,4
 1090 754 1090 754 578 754 c 1,5,6
 570 377 570 377 561 0 c 1,7,-1
 254 0 l 1,8,-1
 256 2323 l 1,9,10
 319 2371 319 2371 401 2372 c 0,11,12
 483 2371 483 2371 547 2323 c 1,13,-1
 1057 1495 l 1,14,-1
 1604 2323 l 1,15,16
 1663 2371 1663 2371 1747 2372 c 0,17,18
 1835 2371 1835 2371 1894 2323 c 1,19,-1
 1892 0 l 1,0,-1
569 1765 m 1,20,-1
 580 1020 l 1,21,-1
 935 1020 l 1,22,-1
 569 1765 l 1,20,-1
1583 1765 m 1,23,-1
 1238 1020 l 1,24,-1
 1594 1020 l 1,25,-1
 1583 1765 l 1,23,-1
EndSplineSet
Validated: 1
EndChar

StartChar: n
Encoding: 110 110 48
Width: 2134
GlyphClass: 1
Flags: W
LayerCount: 2
Fore
SplineSet
1791 31 m 0,0,1
 1678 -28 1678 -28 1552 59 c 0,2,3
 1492 103 1492 103 1428 161 c 0,4,5
 1341 233 1341 233 1338 259 c 0,6,7
 1337 270 1337 270 1254 405 c 0,8,9
 1201 491 1201 491 1178 528 c 0,10,11
 1074 697 1074 697 865 1031 c 0,12,13
 657 1364 657 1364 556 1527 c 1,14,15
 554 1290 554 1290 555 816 c 0,16,17
 554 119 554 119 554 104 c 0,18,19
 555 52 555 52 484 18 c 0,20,21
 419 -13 419 -13 349.5 -0.5 c 128,-1,22
 280 12 280 12 260 69 c 0,23,24
 243 114 243 114 237 170 c 0,25,26
 230 221 230 221 235 294 c 0,27,28
 239 365 239 365 236 397 c 0,29,30
 235 533 235 533 236 1145 c 0,31,32
 235 1864 235 1864 237 1893 c 0,33,34
 243 1979 243 1979 343 2026 c 0,35,36
 444 2072 444 2072 535 2028 c 0,37,38
 599 1999 599 1999 643 1950 c 0,39,40
 686 1905 686 1905 736 1816 c 0,41,42
 788 1728 788 1728 800 1710 c 0,43,44
 816 1684 816 1684 1558 468 c 1,45,46
 1558 1126 1558 1126 1559 1787 c 1,47,48
 1541 1786 1541 1786 1269 1784 c 0,49,50
 1009 1781 1009 1781 980 1797 c 0,51,52
 914 1831 914 1831 903 1880 c 0,53,54
 886 1941 886 1941 924 1992 c 0,55,56
 960 2044 960 2044 1032 2044 c 2,57,-1
 1750 2044 l 2,58,59
 1775 2044 1775 2044 1807 2019 c 0,60,61
 1833 1999 1833 1999 1843 1983 c 0,62,63
 1853 1966 1853 1966 1862 1932 c 0,64,65
 1870 1900 1870 1900 1870 1882 c 0,66,67
 1869 1864 1869 1864 1872 1825 c 0,68,69
 1874 1786 1874 1786 1872 1777 c 0,70,71
 1873 164 1873 164 1871 120 c 0,72,73
 1869 70 1869 70 1791 31 c 0,0,1
EndSplineSet
Validated: 33
EndChar

StartChar: o
Encoding: 111 111 49
Width: 2453
GlyphClass: 1
Flags: W
LayerCount: 2
Fore
SplineSet
1380 2312 m 0,0,1
 1651 2260 1651 2260 1854.5 2067.5 c 128,-1,2
 2058 1875 2058 1875 2149 1621 c 0,3,4
 2279 1293 2279 1293 2211 921.5 c 128,-1,5
 2143 550 2143 550 1889 286 c 0,6,7
 1636 33 1636 33 1321 0 c 0,8,9
 1234 -11 1234 -11 1169.5 49.5 c 128,-1,10
 1105 110 1105 110 1128 188 c 0,11,12
 1140 246 1140 246 1187 276 c 128,-1,13
 1234 306 1234 306 1316.5 326 c 128,-1,14
 1399 346 1399 346 1426 359 c 0,15,16
 1499 391 1499 391 1568 440.5 c 128,-1,17
 1637 490 1637 490 1647 531 c 1,18,19
 812 532 812 532 742 531 c 1,20,21
 731 443 731 443 638 400 c 128,-1,22
 545 357 545 357 460 401 c 0,23,24
 424 422 424 422 393.5 459.5 c 128,-1,25
 363 497 363 497 349.5 521.5 c 128,-1,26
 336 546 336 546 310 603.5 c 128,-1,27
 284 661 284 661 278 675 c 0,28,29
 150 985 150 985 196.5 1337 c 128,-1,30
 243 1689 243 1689 461 1957 c 0,31,32
 608 2148 608 2148 842.5 2251.5 c 128,-1,33
 1077 2355 1077 2355 1322 2321 c 0,34,35
 1351 2317 1351 2317 1380 2312 c 0,0,1
1251 2005 m 0,36,37
 1228 2005 1228 2005 1204 2005 c 0,38,39
 1052 2008 1052 2008 900 1914 c 0,40,41
 658 1753 658 1753 575 1472 c 1,42,43
 1161 1472 1161 1472 1745 1474 c 0,44,45
 1761 1479 1761 1479 1786.5 1474 c 128,-1,46
 1812 1469 1812 1469 1829.5 1473.5 c 128,-1,47
 1847 1478 1847 1478 1838 1498 c 0,48,49
 1750 1748 1750 1748 1562 1884 c 0,50,51
 1425 1991 1425 1991 1251 2005 c 0,36,37
1857 883 m 0,52,53
 1902 1041 1902 1041 1893 1204 c 1,54,55
 1211 1203 1211 1203 529 1204 c 1,56,57
 521 1058 521 1058 555 917 c 0,58,59
 559 906 559 906 565 880.5 c 128,-1,60
 571 855 571 855 577.5 837 c 128,-1,61
 584 819 584 819 595 805 c 0,62,63
 654 805 654 805 764 804.5 c 128,-1,64
 874 804 874 804 922 804 c 0,65,66
 993 804 993 804 1349.5 802 c 128,-1,67
 1706 800 1706 800 1777 802 c 0,68,69
 1792 803 1792 803 1801 798.5 c 128,-1,70
 1810 794 1810 794 1819 803 c 128,-1,71
 1828 812 1828 812 1832 813 c 128,-1,72
 1836 814 1836 814 1841 827.5 c 128,-1,73
 1846 841 1846 841 1847.5 845 c 128,-1,74
 1849 849 1849 849 1852.5 864 c 128,-1,75
 1856 879 1856 879 1857 883 c 0,52,53
EndSplineSet
Validated: 33
EndChar

StartChar: p
Encoding: 112 112 50
Width: 2097
GlyphClass: 1
Flags: W
LayerCount: 2
Fore
SplineSet
784 2255 m 0,0,1
 964 2250 964 2250 1059.5 2243.5 c 128,-1,2
 1155 2237 1155 2237 1301 2203 c 128,-1,3
 1447 2169 1447 2169 1551 2106 c 0,4,5
 1709 2018 1709 2018 1800.5 1864.5 c 128,-1,6
 1892 1711 1892 1711 1880 1548 c 0,7,8
 1869 1401 1869 1401 1779.5 1273.5 c 128,-1,9
 1690 1146 1690 1146 1546 1080 c 0,10,11
 1414 1016 1414 1016 1241.5 987.5 c 128,-1,12
 1069 959 1069 959 915.5 961.5 c 128,-1,13
 762 964 762 964 592 964 c 1,14,-1
 592 145 l 2,15,16
 584 69 584 69 503 25 c 128,-1,17
 422 -19 422 -19 345 16 c 0,18,19
 235 55 235 55 248 227 c 0,20,21
 245 394 245 394 247 1163 c 128,-1,22
 249 1932 249 1932 249 2100 c 0,23,24
 262 2167 262 2167 325 2206.5 c 128,-1,25
 388 2246 388 2246 473 2251 c 0,26,27
 522 2252 522 2252 625 2253 c 128,-1,28
 728 2254 728 2254 784 2255 c 0,0,1
805 1983 m 0,29,30
 706 1976 706 1976 606 1964 c 1,31,32
 606 1964 606 1964 606 1774 c 1,33,34
 749 1774 749 1774 891 1775 c 0,35,36
 909 1774 909 1774 954 1776 c 128,-1,37
 999 1778 999 1778 1031 1774 c 128,-1,38
 1063 1770 1063 1770 1090 1756 c 0,39,40
 1146 1729 1146 1729 1170 1673 c 128,-1,41
 1194 1617 1194 1617 1171 1564 c 0,42,43
 1155 1519 1155 1519 1110 1489.5 c 128,-1,44
 1065 1460 1065 1460 1011 1458 c 0,45,46
 936 1458 936 1458 797.5 1459 c 128,-1,47
 659 1460 659 1460 604 1460 c 1,48,49
 601 1344 601 1344 601 1228 c 1,50,51
 677 1219 677 1219 801 1219 c 0,52,53
 1071 1217 1071 1217 1253 1268 c 0,54,55
 1466 1325 1466 1325 1533 1458 c 0,56,57
 1594 1600 1594 1600 1526 1730 c 0,58,59
 1448 1882 1448 1882 1233 1944 c 0,60,61
 1044 1993 1044 1993 805 1983 c 0,29,30
EndSplineSet
Validated: 33
EndChar

StartChar: q
Encoding: 113 113 51
Width: 2457
GlyphClass: 1
Flags: W
LayerCount: 2
Fore
SplineSet
1204 2373 m 0,0,1
 1489 2374 1489 2374 1726.5 2212.5 c 128,-1,2
 1964 2051 1964 2051 2085 1812 c 0,3,4
 2278 1467 2278 1467 2223.5 1055.5 c 128,-1,5
 2169 644 2169 644 1875 354 c 0,6,7
 1739 226 1739 226 1551 148 c 1,8,9
 1562 96 1562 96 1592.5 46.5 c 128,-1,10
 1623 -3 1623 -3 1676.5 -67 c 128,-1,11
 1730 -131 1730 -131 1748 -156 c 0,12,13
 1792 -239 1792 -239 1714.5 -314 c 128,-1,14
 1637 -389 1637 -389 1536 -360 c 0,15,16
 1474 -331 1474 -331 1429 -288.5 c 128,-1,17
 1384 -246 1384 -246 1316.5 -152 c 128,-1,18
 1249 -58 1249 -58 1244 -50 c 0,19,20
 1208 19 1208 19 1168.5 49.5 c 128,-1,21
 1129 80 1129 80 1026 118 c 1,22,23
 760 166 760 166 562.5 345 c 128,-1,24
 365 524 365 524 271 763 c 0,25,26
 133 1120 133 1120 214 1496 c 1,27,28
 267 1559 267 1559 361.5 1562.5 c 128,-1,29
 456 1566 456 1566 506 1500 c 0,30,31
 532 1460 532 1460 532 1409.5 c 128,-1,32
 532 1359 532 1359 522.5 1301 c 128,-1,33
 513 1243 513 1243 518 1206 c 0,34,35
 523 982 523 982 618.5 786.5 c 128,-1,36
 714 591 714 591 910 483 c 0,37,38
 1065 408 1065 408 1066 454 c 0,39,40
 1066 469 1066 469 1052 497 c 0,41,42
 986 754 986 754 1206 792 c 1,43,44
 1293 781 1293 781 1334 738.5 c 128,-1,45
 1375 696 1375 696 1408 601 c 0,46,47
 1408 554 1408 554 1418 518 c 128,-1,48
 1428 482 1428 482 1456.5 462 c 128,-1,49
 1485 442 1485 442 1535 497 c 1,50,51
 1732 628 1732 628 1815 844 c 128,-1,52
 1898 1060 1898 1060 1882 1300 c 0,53,54
 1867 1519 1867 1519 1762.5 1706.5 c 128,-1,55
 1658 1894 1658 1894 1459 1989 c 0,56,57
 1348 2040 1348 2040 1222 2044 c 128,-1,58
 1096 2048 1096 2048 984 1999 c 0,59,60
 877 1964 877 1964 790.5 2043.5 c 128,-1,61
 704 2123 704 2123 753 2212 c 0,62,63
 762 2228 762 2228 775 2243 c 128,-1,64
 788 2258 788 2258 800.5 2269 c 128,-1,65
 813 2280 813 2280 833.5 2291 c 128,-1,66
 854 2302 854 2302 867 2308.5 c 128,-1,67
 880 2315 880 2315 906.5 2323 c 128,-1,68
 933 2331 933 2331 944.5 2334.5 c 128,-1,69
 956 2338 956 2338 986.5 2344.5 c 128,-1,70
 1017 2351 1017 2351 1026 2352.5 c 128,-1,71
 1035 2354 1035 2354 1068 2360 c 128,-1,72
 1101 2366 1101 2366 1107 2367 c 0,73,74
 1155 2372 1155 2372 1204 2373 c 0,0,1
EndSplineSet
Validated: 33
EndChar

StartChar: r
Encoding: 114 114 52
Width: 2019
GlyphClass: 1
Flags: W
LayerCount: 2
Fore
SplineSet
1839 54 m 1,0,1
 1778 1 1778 1 1665 -1.5 c 128,-1,2
 1552 -4 1552 -4 1470 54 c 1,3,4
 1376 201 1376 201 1195 457 c 128,-1,5
 1014 713 1014 713 920 861 c 1,6,-1
 582 861 l 1,7,8
 581 726 581 726 575.5 466.5 c 128,-1,9
 570 207 570 207 570 54 c 1,10,11
 469 -3 469 -3 395.5 0 c 128,-1,12
 322 3 322 3 221 54 c 1,13,-1
 221 1487 l 2,14,15
 230 1566 230 1566 330.5 1598 c 128,-1,16
 431 1630 431 1630 507 1581 c 0,17,18
 604 1525 604 1525 585 1394 c 0,19,20
 583 1279 583 1279 583 1165 c 1,21,22
 958 1115 958 1115 1243 1210 c 0,23,24
 1338 1247 1338 1247 1390 1327 c 128,-1,25
 1442 1407 1442 1407 1421 1492 c 0,26,27
 1399 1596 1399 1596 1286 1657 c 128,-1,28
 1173 1718 1173 1718 1035 1728 c 0,29,30
 959 1721 959 1721 903.5 1767.5 c 128,-1,31
 848 1814 848 1814 848 1880 c 0,32,33
 846 1954 846 1954 923 1998.5 c 128,-1,34
 1000 2043 1000 2043 1083 2019 c 0,35,36
 1543 1967 1543 1967 1701 1719 c 0,37,38
 1807 1555 1807 1555 1763.5 1370.5 c 128,-1,39
 1720 1186 1720 1186 1561 1058 c 0,40,41
 1450 967 1450 967 1286 917 c 1,42,43
 1383 760 1383 760 1562.5 485.5 c 128,-1,44
 1742 211 1742 211 1839 54 c 1,0,1
EndSplineSet
Validated: 33
EndChar

StartChar: s
Encoding: 115 115 53
Width: 2043
GlyphClass: 1
Flags: W
LayerCount: 2
Fore
SplineSet
1031 2376 m 0,0,1
 1394 2365 1394 2365 1729 2252 c 0,2,3
 1800 2220 1800 2220 1802 2149 c 128,-1,4
 1804 2078 1804 2078 1734 2045 c 0,5,6
 1707 2030 1707 2030 1673 2028 c 128,-1,7
 1639 2026 1639 2026 1614.5 2031 c 128,-1,8
 1590 2036 1590 2036 1550 2047 c 128,-1,9
 1510 2058 1510 2058 1492 2062 c 0,10,11
 1110 2144 1110 2144 877 2108 c 0,12,13
 749 2088 749 2088 660.5 2003.5 c 128,-1,14
 572 1919 572 1919 584 1816 c 0,15,16
 581 1663 581 1663 807 1566 c 0,17,18
 900 1521 900 1521 1165 1437.5 c 128,-1,19
 1430 1354 1430 1354 1552 1274 c 0,20,21
 1687 1190 1687 1190 1762 1067 c 128,-1,22
 1837 944 1837 944 1814 816 c 1,23,24
 1778 742 1778 742 1673 724.5 c 128,-1,25
 1568 707 1568 707 1503 766 c 0,26,27
 1465 801 1465 801 1446.5 886 c 128,-1,28
 1428 971 1428 971 1398 1005 c 0,29,30
 1367 1043 1367 1043 1327 1073 c 128,-1,31
 1287 1103 1287 1103 1225 1129.5 c 128,-1,32
 1163 1156 1163 1156 1131 1168 c 128,-1,33
 1099 1180 1099 1180 1013.5 1206 c 128,-1,34
 928 1232 928 1232 912 1237 c 0,35,36
 521 1352 521 1352 342 1536 c 0,37,38
 249 1628 249 1628 227.5 1752.5 c 128,-1,39
 206 1877 206 1877 258 1987 c 0,40,41
 322 2158 322 2158 521.5 2262.5 c 128,-1,42
 721 2367 721 2367 953 2372 c 0,43,44
 992 2374 992 2374 1031 2376 c 0,0,1
309 350 m 0,45,46
 330 352 330 352 349 347 c 0,47,48
 368 344 368 344 393 333 c 0,49,50
 421 324 421 324 446 318 c 0,51,52
 683 274 683 274 720 273 c 0,53,54
 822 266 822 266 964 248 c 0,55,56
 1060 233 1060 233 1097 195 c 0,57,58
 1138 155 1138 155 1125 100 c 0,59,60
 1114 53 1114 53 1054 21 c 0,61,62
 1006 -4 1006 -4 949 0 c 0,63,64
 597 12 597 12 266 119 c 0,65,66
 228 131 228 131 199 175 c 0,67,68
 179 205 179 205 186 249 c 0,69,70
 192 286 192 286 226.5 315 c 128,-1,71
 261 344 261 344 309 350 c 0,45,46
EndSplineSet
Validated: 33
EndChar

StartChar: t
Encoding: 116 116 54
Width: 1982
GlyphClass: 1
Flags: W
HStem: 2088 284<189 838 1116 1792>
VStem: 837 279<10 2088>
LayerCount: 2
Fore
SplineSet
1693 2372 m 1,0,1
 1783 2359 1783 2359 1801 2247 c 0,2,3
 1820 2134 1820 2134 1741 2088 c 1,4,-1
 1116 2088 l 1,5,6
 1115 1065 1115 1065 1115 16 c 1,7,8
 976 -21 976 -21 837 16 c 1,9,-1
 838 2088 l 1,10,-1
 251 2088 l 1,11,12
 190 2110 190 2110 174 2175 c 0,13,14
 157 2241 157 2241 188 2302 c 0,15,16
 223 2368 223 2368 282 2367 c 2,17,-1
 1693 2372 l 1,0,1
EndSplineSet
Validated: 33
EndChar

StartChar: u
Encoding: 117 117 55
Width: 2138
GlyphClass: 1
Flags: W
LayerCount: 2
Fore
SplineSet
1081 0 m 0,0,1
 868 -8 868 -8 675 91 c 0,2,3
 483 193 483 193 377 355 c 0,4,5
 312 451 312 451 280 580 c 0,6,7
 249 712 249 712 246 790 c 0,8,9
 246 868 246 868 244 1032 c 0,10,11
 233 1417 233 1417 233 2229 c 0,12,13
 233 2302 233 2302 321 2346 c 0,14,15
 406 2392 406 2392 479 2343 c 0,16,17
 524 2314 524 2314 543 2269 c 0,18,19
 561 2220 561 2220 561 2176 c 0,20,21
 557 2130 557 2130 560 2082 c 0,22,23
 565 1515 565 1515 571 1100 c 1,24,25
 1061 1098 1061 1098 1547 1102 c 1,26,27
 1556 1716 1556 1716 1540 2167 c 0,28,29
 1540 2171 1540 2171 1544 2190 c 0,30,31
 1548 2212 1548 2212 1548 2217 c 0,32,33
 1548 2224 1548 2224 1553 2243 c 0,34,35
 1556 2261 1556 2261 1560 2270 c 0,36,37
 1565 2277 1565 2277 1569 2293.5 c 128,-1,38
 1573 2310 1573 2310 1581 2317 c 0,39,40
 1589 2326 1589 2326 1597 2334 c 0,41,42
 1606 2342 1606 2342 1617 2349 c 0,43,44
 1630 2355 1630 2355 1641 2357 c 0,45,46
 1712 2388 1712 2388 1786 2349 c 0,47,48
 1855 2314 1855 2314 1861 2241 c 0,49,50
 1876 2109 1876 2109 1879 1749 c 0,51,52
 1880 1638 1880 1638 1880 1556 c 0,53,54
 1879 1475 1879 1475 1881 1373 c 0,55,56
 1880 1306 1880 1306 1879 1160 c 0,57,58
 1880 1016 1880 1016 1875 903 c 0,59,60
 1871 790 1871 790 1859 690 c 0,61,62
 1819 356 1819 356 1602 186 c 0,63,64
 1384 12 1384 12 1081 0 c 0,0,1
611 842 m 0,65,66
 594 839 594 839 576 840 c 1,67,68
 581 703 581 703 625 572 c 0,69,70
 695 371 695 371 867 299 c 0,71,72
 996 255 996 255 1123 268 c 0,73,74
 1309 285 1309 285 1430 448 c 0,75,76
 1555 621 1555 621 1548 842 c 1,77,78
 1080 839 1080 839 611 842 c 0,65,66
EndSplineSet
Validated: 33
EndChar

StartChar: v
Encoding: 118 118 56
Width: 2011
GlyphClass: 1
Flags: W
LayerCount: 2
Fore
SplineSet
1813 1921 m 1,0,1
 1715 1633 1715 1633 1507 1003 c 128,-1,2
 1299 373 1299 373 1187 45 c 1,3,4
 1003 -47 1003 -47 819 45 c 1,5,6
 733 297 733 297 513 927.5 c 128,-1,7
 293 1558 293 1558 180 1897 c 0,8,9
 158 1971 158 1971 197 2039 c 128,-1,10
 236 2107 236 2107 316 2101 c 0,11,12
 347 2107 347 2107 564.5 2106 c 128,-1,13
 782 2105 782 2105 814 2105 c 0,14,15
 888 2105 888 2105 1232.5 2105 c 128,-1,16
 1577 2105 1577 2105 1652 2105 c 0,17,18
 1722 2101 1722 2101 1770 2045 c 128,-1,19
 1818 1989 1818 1989 1813 1921 c 1,0,1
1475 1810 m 1,20,21
 1468 1810 1468 1810 1432.5 1810 c 128,-1,22
 1397 1810 1397 1810 1389 1810 c 0,23,24
 1311 1811 1311 1811 1152.5 1810 c 128,-1,25
 994 1809 994 1809 916 1810 c 0,26,27
 765 1808 765 1808 710 1810 c 0,28,29
 699 1811 699 1811 605.5 1810.5 c 128,-1,30
 512 1810 512 1810 501 1810 c 1,31,32
 554 1656 554 1656 607 1502 c 0,33,34
 629 1438 629 1438 768.5 1031 c 128,-1,35
 908 624 908 624 980 408 c 0,36,37
 992 343 992 343 1010 416 c 0,38,39
 1151 827 1151 827 1475 1810 c 1,20,21
EndSplineSet
Validated: 33
EndChar

StartChar: w
Encoding: 119 119 57
Width: 2048
GlyphClass: 1
Flags: W
LayerCount: 2
Fore
SplineSet
1823 2071 m 0,0,1
 1782 1735 1782 1735 1703.5 1059.5 c 128,-1,2
 1625 384 1625 384 1583 46 c 1,3,4
 1532 -7 1532 -7 1450.5 1.5 c 128,-1,5
 1369 10 1369 10 1341 86 c 0,6,7
 1303 179 1303 179 1236 347 c 128,-1,8
 1169 515 1169 515 1112.5 653.5 c 128,-1,9
 1056 792 1056 792 1005 913 c 1,10,11
 945 760 945 760 847.5 466.5 c 128,-1,12
 750 173 750 173 703 46 c 1,13,14
 651 -8 651 -8 556.5 0 c 128,-1,15
 462 8 462 8 451 94 c 0,16,17
 415 395 415 395 328.5 1111 c 128,-1,18
 242 1827 242 1827 197 2213 c 0,19,20
 203 2287 203 2287 260.5 2316 c 128,-1,21
 318 2345 318 2345 374 2312 c 128,-1,22
 430 2279 430 2279 430 2203 c 0,23,24
 453 2099 453 2099 475.5 1903.5 c 128,-1,25
 498 1708 498 1708 511 1633 c 0,26,27
 616 838 616 838 640 662 c 1,28,29
 682 732 682 732 734 875.5 c 128,-1,30
 786 1019 786 1019 809 1066 c 0,31,32
 916 1350 916 1350 988 1440 c 1,33,34
 1028 1451 1028 1451 1052 1447.5 c 128,-1,35
 1076 1444 1076 1444 1099 1407 c 128,-1,36
 1122 1370 1122 1370 1133.5 1338.5 c 128,-1,37
 1145 1307 1145 1307 1161.5 1261 c 128,-1,38
 1178 1215 1178 1215 1188 1194 c 0,39,40
 1373 710 1373 710 1402 648 c 1,41,42
 1427 842 1427 842 1497 1400.5 c 128,-1,43
 1567 1959 1567 1959 1609 2264 c 0,44,45
 1636 2365 1636 2365 1732 2343 c 0,46,47
 1822 2323 1822 2323 1838 2234 c 0,48,49
 1844 2202 1844 2202 1834 2169 c 0,50,51
 1833 2155 1833 2155 1828.5 2122 c 128,-1,52
 1824 2089 1824 2089 1823 2071 c 0,0,1
EndSplineSet
Validated: 33
EndChar

StartChar: x
Encoding: 120 120 58
Width: 2035
GlyphClass: 1
Flags: W
LayerCount: 2
Fore
SplineSet
608 2459 m 0,0,1
 688 2458 688 2458 748 2407.5 c 128,-1,2
 808 2357 808 2357 801 2291 c 0,3,4
 799 2252 799 2252 772.5 2219.5 c 128,-1,5
 746 2187 746 2187 699 2150 c 128,-1,6
 652 2113 652 2113 635 2094 c 0,7,8
 616 2077 616 2077 617 2069 c 128,-1,9
 618 2061 618 2061 636 2041.5 c 128,-1,10
 654 2022 654 2022 658 2014 c 0,11,12
 832 1784 832 1784 1006 1553 c 1,13,14
 1006 1491 1006 1491 1006 1368 c 128,-1,15
 1006 1245 1006 1245 1006 1184 c 1,16,-1
 848 1184 l 1,17,-1
 1006 1184 l 1,18,19
 1006 1122 1006 1122 1006 999 c 128,-1,20
 1006 876 1006 876 1006 814 c 1,21,22
 832 584 832 584 658 354 c 0,23,24
 655 346 655 346 636.5 326 c 128,-1,25
 618 306 618 306 617 298 c 128,-1,26
 616 290 616 290 635 273 c 0,27,28
 653 254 653 254 699.5 217 c 128,-1,29
 746 180 746 180 772.5 147.5 c 128,-1,30
 799 115 799 115 801 76 c 0,31,32
 810 -7 810 -7 720 -60 c 128,-1,33
 630 -113 630 -113 535 -80 c 1,34,-1
 297 114 l 2,35,36
 230 151 230 151 207.5 220 c 128,-1,37
 185 289 185 289 210 349 c 0,38,39
 319 512 319 512 526 811.5 c 128,-1,40
 733 1111 733 1111 782 1184 c 1,41,42
 733 1256 733 1256 526 1555.5 c 128,-1,43
 319 1855 319 1855 210 2018 c 0,44,45
 185 2079 185 2079 207.5 2147.5 c 128,-1,46
 230 2216 230 2216 297 2253 c 2,47,-1
 535 2447 l 2,48,49
 570 2460 570 2460 608 2459 c 0,0,1
1006 1184 m 1,50,-1
 1237 1184 l 1,51,52
 1287 1258 1287 1258 1490.5 1557 c 128,-1,53
 1694 1856 1694 1856 1802 2018 c 0,54,55
 1827 2079 1827 2079 1804.5 2147.5 c 128,-1,56
 1782 2216 1782 2216 1715 2253 c 2,57,-1
 1476 2447 l 1,58,59
 1381 2480 1381 2480 1291.5 2427 c 128,-1,60
 1202 2374 1202 2374 1211 2291 c 0,61,62
 1213 2252 1213 2252 1239 2219.5 c 128,-1,63
 1265 2187 1265 2187 1312.5 2150 c 128,-1,64
 1360 2113 1360 2113 1377 2094 c 0,65,66
 1396 2077 1396 2077 1395 2069 c 128,-1,67
 1394 2061 1394 2061 1376 2041.5 c 128,-1,68
 1358 2022 1358 2022 1354 2014 c 0,69,70
 1286 1924 1286 1924 1157.5 1753.5 c 128,-1,71
 1029 1583 1029 1583 1006 1553 c 1,72,73
 1006 1491 1006 1491 1006 1368.5 c 128,-1,74
 1006 1246 1006 1246 1006 1184 c 1,50,-1
1006 1184 m 1,75,76
 1045 1184 1045 1184 1122 1184 c 128,-1,77
 1199 1184 1199 1184 1237 1184 c 1,78,79
 1287 1110 1287 1110 1490.5 811 c 128,-1,80
 1694 512 1694 512 1802 349 c 0,81,82
 1827 288 1827 288 1804.5 219.5 c 128,-1,83
 1782 151 1782 151 1715 114 c 2,84,-1
 1476 -80 l 1,85,86
 1381 -113 1381 -113 1291.5 -60 c 128,-1,87
 1202 -7 1202 -7 1211 76 c 0,88,89
 1213 115 1213 115 1239 147.5 c 128,-1,90
 1265 180 1265 180 1312.5 217 c 128,-1,91
 1360 254 1360 254 1377 273 c 0,92,93
 1396 290 1396 290 1395 298 c 128,-1,94
 1394 306 1394 306 1376 325.5 c 128,-1,95
 1358 345 1358 345 1354 354 c 0,96,97
 1296 431 1296 431 1180 584.5 c 128,-1,98
 1064 738 1064 738 1006 814 c 1,99,100
 1006 876 1006 876 1006 999 c 128,-1,101
 1006 1122 1006 1122 1006 1184 c 1,75,76
EndSplineSet
Validated: 37
EndChar

StartChar: y
Encoding: 121 121 59
Width: 2007
GlyphClass: 1
Flags: W
LayerCount: 2
Fore
SplineSet
1640 2291 m 0,0,1
 1730 2307 1730 2307 1784.5 2233.5 c 128,-1,2
 1839 2160 1839 2160 1811 2081 c 0,3,4
 1772 2001 1772 2001 1686.5 1857 c 128,-1,5
 1601 1713 1601 1713 1580 1675 c 0,6,7
 1364 1305 1364 1305 1147 932 c 1,8,9
 1146 767 1146 767 1148.5 467.5 c 128,-1,10
 1151 168 1151 168 1151 49 c 1,11,12
 987 -49 987 -49 823 49 c 1,13,14
 823 174 823 174 825.5 470.5 c 128,-1,15
 828 767 828 767 828 930 c 1,16,17
 506 1500 506 1500 183 2070 c 1,18,19
 158 2153 158 2153 226 2220.5 c 128,-1,20
 294 2288 294 2288 380 2254 c 0,21,22
 425 2234 425 2234 456 2193.5 c 128,-1,23
 487 2153 487 2153 517 2092.5 c 128,-1,24
 547 2032 547 2032 566 2006 c 0,25,26
 780 1624 780 1624 998 1243 c 1,27,28
 1092 1406 1092 1406 1274.5 1730.5 c 128,-1,29
 1457 2055 1457 2055 1548 2214 c 0,30,31
 1588 2283 1588 2283 1640 2291 c 0,0,1
EndSplineSet
Validated: 33
EndChar

StartChar: z
Encoding: 122 122 60
Width: 2031
GlyphClass: 1
Flags: W
LayerCount: 2
Fore
SplineSet
1771 0 m 1,0,-1
 256 0 l 1,1,2
 236 106 236 106 263 280 c 1,3,4
 346 487 346 487 1411 2086 c 1,5,-1
 1407 2086 l 1,6,-1
 1403 2086 l 1,7,-1
 1399 2086 l 1,8,-1
 1395 2086 l 1,9,-1
 1391 2086 l 1,10,-1
 1387 2086 l 1,11,-1
 1383 2086 l 1,12,-1
 1378 2086 l 1,13,-1
 1374 2086 l 1,14,-1
 1370 2086 l 1,15,-1
 1366 2086 l 1,16,-1
 1362 2086 l 1,17,-1
 1358 2086 l 1,18,-1
 1354 2086 l 1,19,-1
 1350 2086 l 1,20,-1
 1346 2086 l 1,21,-1
 1342 2086 l 1,22,-1
 1337 2086 l 1,23,-1
 1333 2086 l 1,24,-1
 1329 2086 l 1,25,-1
 1325 2086 l 1,26,-1
 1321 2086 l 1,27,-1
 1317 2086 l 1,28,-1
 1313 2086 l 1,29,-1
 1309 2086 l 1,30,-1
 1305 2086 l 1,31,-1
 1301 2086 l 1,32,33
 1300 2086 1300 2086 1296 2086 c 1,34,-1
 1292 2086 l 1,35,-1
 1288 2086 l 1,36,-1
 1284 2086 l 1,37,-1
 1280 2086 l 1,38,-1
 1276 2086 l 1,39,-1
 1272 2086 l 1,40,-1
 1268 2086 l 1,41,-1
 1264 2086 l 1,42,-1
 1260 2086 l 1,43,-1
 1256 2086 l 1,44,-1
 1251 2086 l 1,45,-1
 1247 2086 l 1,46,-1
 1243 2086 l 1,47,-1
 1239 2086 l 1,48,-1
 1235 2086 l 1,49,-1
 1231 2086 l 1,50,-1
 1227 2086 l 1,51,-1
 1223 2086 l 1,52,-1
 1219 2086 l 1,53,-1
 1215 2086 l 1,54,-1
 1210 2086 l 1,55,-1
 1206 2086 l 1,56,-1
 1202 2086 l 1,57,-1
 1198 2086 l 1,58,-1
 1194 2086 l 1,59,-1
 1190 2086 l 1,60,-1
 1186 2086 l 1,61,-1
 1182 2086 l 1,62,-1
 1178 2086 l 1,63,-1
 1174 2086 l 1,64,-1
 1170 2086 l 1,65,-1
 1165 2086 l 1,66,-1
 1161 2086 l 1,67,-1
 1157 2086 l 1,68,-1
 1153 2086 l 1,69,-1
 1149 2086 l 1,70,-1
 1145 2086 l 1,71,-1
 1141 2086 l 1,72,-1
 1137 2086 l 1,73,-1
 1133 2086 l 1,74,-1
 1129 2086 l 1,75,-1
 1124 2086 l 1,76,-1
 1120 2086 l 1,77,-1
 1116 2086 l 1,78,-1
 1112 2086 l 1,79,-1
 1108 2086 l 1,80,-1
 1104 2086 l 1,81,-1
 1100 2086 l 1,82,-1
 1096 2086 l 1,83,-1
 1092 2086 l 1,84,-1
 1088 2086 l 1,85,-1
 1084 2086 l 1,86,-1
 1079 2086 l 1,87,-1
 1075 2086 l 1,88,-1
 1071 2087 l 1,89,-1
 1067 2087 l 1,90,-1
 1063 2087 l 1,91,-1
 1059 2087 l 1,92,-1
 1055 2087 l 1,93,-1
 1051 2087 l 1,94,-1
 1047 2087 l 1,95,-1
 1043 2087 l 1,96,-1
 1038 2087 l 1,97,-1
 1034 2087 l 1,98,-1
 1030 2087 l 1,99,-1
 1026 2087 l 1,100,-1
 1022 2087 l 1,101,-1
 1018 2087 l 1,102,-1
 1014 2087 l 1,103,-1
 1010 2087 l 1,104,-1
 1006 2087 l 1,105,-1
 1002 2087 l 1,106,-1
 997 2087 l 1,107,-1
 993 2087 l 1,108,-1
 989 2087 l 1,109,-1
 985 2087 l 1,110,-1
 981 2087 l 1,111,-1
 977 2087 l 1,112,-1
 973 2087 l 1,113,-1
 969 2087 l 1,114,-1
 965 2087 l 1,115,-1
 961 2087 l 1,116,-1
 957 2087 l 1,117,-1
 952 2087 l 1,118,-1
 948 2087 l 1,119,-1
 944 2087 l 1,120,-1
 940 2087 l 1,121,-1
 936 2087 l 1,122,-1
 932 2087 l 1,123,-1
 928 2087 l 1,124,-1
 924 2087 l 1,125,-1
 920 2087 l 1,126,-1
 916 2087 l 1,127,-1
 911 2087 l 1,128,-1
 904 2087 l 1,129,-1
 900 2087 l 1,130,-1
 896 2087 l 1,131,-1
 892 2087 l 1,132,-1
 888 2087 l 1,133,-1
 884 2087 l 1,134,-1
 880 2087 l 1,135,-1
 875 2087 l 1,136,-1
 871 2087 l 1,137,-1
 867 2087 l 1,138,-1
 863 2087 l 1,139,-1
 859 2087 l 1,140,-1
 855 2087 l 1,141,-1
 851 2087 l 1,142,-1
 847 2087 l 1,143,-1
 843 2087 l 1,144,-1
 839 2087 l 1,145,-1
 835 2087 l 1,146,-1
 830 2087 l 1,147,-1
 826 2087 l 1,148,-1
 822 2087 l 1,149,-1
 818 2087 l 1,150,-1
 814 2087 l 1,151,-1
 810 2087 l 1,152,-1
 806 2087 l 1,153,-1
 802 2087 l 1,154,-1
 798 2087 l 1,155,-1
 794 2087 l 1,156,-1
 789 2087 l 1,157,-1
 785 2087 l 1,158,-1
 781 2087 l 1,159,-1
 777 2087 l 1,160,-1
 773 2087 l 1,161,-1
 769 2087 l 1,162,-1
 765 2087 l 1,163,-1
 761 2087 l 1,164,-1
 757 2087 l 1,165,-1
 753 2087 l 1,166,-1
 748 2087 l 1,167,-1
 744 2087 l 1,168,-1
 740 2087 l 1,169,-1
 736 2087 l 1,170,-1
 732 2087 l 1,171,-1
 728 2087 l 1,172,-1
 724 2087 l 1,173,-1
 720 2087 l 1,174,-1
 716 2087 l 1,175,-1
 712 2087 l 1,176,-1
 708 2087 l 1,177,-1
 703 2087 l 1,178,-1
 699 2087 l 1,179,-1
 695 2087 l 1,180,-1
 691 2087 l 1,181,-1
 687 2087 l 1,182,-1
 683 2087 l 1,183,-1
 679 2087 l 1,184,-1
 675 2087 l 1,185,-1
 671 2087 l 1,186,-1
 667 2087 l 1,187,-1
 662 2087 l 1,188,-1
 658 2087 l 1,189,-1
 654 2087 l 1,190,-1
 650 2087 l 1,191,-1
 646 2087 l 1,192,-1
 642 2087 l 1,193,-1
 638 2087 l 1,194,-1
 634 2087 l 1,195,-1
 630 2087 l 1,196,-1
 626 2087 l 1,197,-1
 622 2087 l 1,198,-1
 617 2087 l 1,199,-1
 613 2087 l 1,200,-1
 609 2087 l 1,201,-1
 605 2087 l 1,202,-1
 601 2087 l 1,203,-1
 597 2087 l 1,204,-1
 593 2087 l 1,205,-1
 589 2087 l 1,206,-1
 585 2087 l 1,207,-1
 581 2087 l 1,208,-1
 576 2087 l 1,209,-1
 572 2087 l 1,210,-1
 568 2087 l 1,211,-1
 564 2087 l 1,212,-1
 560 2087 l 1,213,-1
 556 2087 l 1,214,-1
 552 2087 l 1,215,-1
 548 2088 l 1,216,-1
 544 2088 l 1,217,-1
 540 2088 l 1,218,-1
 535 2088 l 1,219,-1
 531 2088 l 1,220,-1
 527 2088 l 1,221,-1
 523 2088 l 1,222,-1
 519 2088 l 1,223,-1
 515 2088 l 1,224,-1
 511 2088 l 1,225,-1
 507 2088 l 1,226,-1
 503 2088 l 1,227,-1
 499 2088 l 1,228,-1
 495 2088 l 1,229,-1
 490 2088 l 1,230,-1
 486 2088 l 1,231,-1
 482 2088 l 1,232,-1
 478 2088 l 1,233,-1
 474 2088 l 1,234,-1
 470 2088 l 1,235,-1
 466 2088 l 1,236,-1
 462 2088 l 1,237,-1
 458 2088 l 1,238,-1
 454 2088 l 1,239,-1
 449 2088 l 1,240,-1
 445 2088 l 1,241,-1
 441 2088 l 1,242,-1
 437 2088 l 1,243,-1
 433 2088 l 1,244,-1
 429 2088 l 1,245,-1
 425 2088 l 1,246,-1
 421 2088 l 1,247,-1
 417 2088 l 1,248,-1
 413 2088 l 1,249,-1
 409 2088 l 1,250,-1
 404 2088 l 1,251,-1
 397 2088 l 2,252,253
 395 2089 395 2089 374 2090 c 0,254,255
 354 2089 354 2089 348 2092 c 0,256,257
 342 2093 342 2093 324 2094 c 0,258,259
 305 2097 305 2097 298 2098 c 0,260,261
 293 2101 293 2101 275 2104 c 0,262,263
 260 2105 260 2105 251 2112 c 0,264,265
 243 2113 243 2113 231 2123 c 0,266,267
 219 2130 219 2130 212 2137 c 0,268,269
 203 2142 203 2142 197 2154 c 0,270,271
 190 2162 190 2162 184 2176 c 0,272,273
 145 2244 145 2244 199 2312 c 0,274,275
 247 2371 247 2371 334 2372 c 0,276,277
 1030 2371 1030 2371 1730 2372 c 0,278,279
 1763 2371 1763 2371 1789 2341 c 0,280,281
 1809 2314 1809 2314 1808 2286 c 0,282,283
 1809 2253 1809 2253 1808 2220 c 0,284,285
 1805 2183 1805 2183 1808 2158 c 0,286,287
 1817 2114 1817 2114 1797 2078 c 0,288,289
 1780 2040 1780 2040 1738 1994 c 0,290,291
 1697 1946 1697 1946 1686 1927 c 0,292,293
 1001 876 1001 876 646 272 c 1,294,295
 1194 270 1194 270 1771 269 c 1,296,297
 1869 131 1869 131 1771 0 c 1,0,-1
EndSplineSet
Validated: 33
EndChar
